<?xml version="1.0" encoding="UTF-8"?>
<!DOCTYPE svg PUBLIC "-//W3C//DTD SVG 1.1//EN" "http://www.w3.org/Graphics/SVG/1.1/DTD/svg11.dtd">
<svg xmlns="http://www.w3.org/2000/svg" version="1.1" width="697px" height="267px" style="shape-rendering:geometricPrecision; text-rendering:geometricPrecision; image-rendering:optimizeQuality; fill-rule:evenodd; clip-rule:evenodd" xmlns:xlink="http://www.w3.org/1999/xlink">
<g><path style="opacity:1" fill="#cab27b" d="M 95.5,44.5 C 100.844,44.334 106.177,44.5006 111.5,45C 108.833,45.3333 106.167,45.6667 103.5,46C 104.167,46.3333 104.833,46.6667 105.5,47C 104.062,47.2189 102.729,47.7189 101.5,48.5C 103.451,50.6224 105.785,52.1224 108.5,53C 107.584,53.3742 106.75,53.8742 106,54.5C 102.606,53.5442 99.1064,53.2108 95.5,53.5C 95.6399,55.1238 94.9733,56.2904 93.5,57C 94.5,57.3333 95.5,57.6667 96.5,58C 96.1667,58.3333 95.8333,58.6667 95.5,59C 96.3081,59.3076 96.9747,59.8076 97.5,60.5C 93.0421,61.8533 88.7088,63.52 84.5,65.5C 83.8968,63.3206 83.2301,61.154 82.5,59C 85.8878,54.2788 89.8878,50.2788 94.5,47C 93.5842,46.7216 92.9175,46.2216 92.5,45.5C 93.609,45.4431 94.609,45.1098 95.5,44.5 Z"/></g>
<g><path style="opacity:1" fill="#c2a771" d="M 77.5,43.5 C 83.5,43.5 89.5,43.5 95.5,43.5C 95.5,43.8333 95.5,44.1667 95.5,44.5C 94.609,45.1098 93.609,45.4431 92.5,45.5C 90.8333,45.5 89.1667,45.5 87.5,45.5C 87.6399,47.1238 86.9733,48.2904 85.5,49C 85.8333,49.3333 86.1667,49.6667 86.5,50C 82.6071,51.2259 80.1071,53.7259 79,57.5C 76.2419,58.7946 73.7419,60.4612 71.5,62.5C 71.8333,63.1667 72.1667,63.8333 72.5,64.5C 70.5767,65.3078 68.5767,65.8078 66.5,66C 63.8826,70.1602 60.216,73.1602 55.5,75C 56.624,75.2492 57.624,75.7492 58.5,76.5C 55.1026,78.1987 51.7692,79.8654 48.5,81.5C 48.1667,80.8333 47.8333,80.1667 47.5,79.5C 47.8333,77.5 48.1667,75.5 48.5,73.5C 51.4642,72.1999 54.4642,70.8665 57.5,69.5C 56.9747,68.8076 56.3081,68.3076 55.5,68C 57.179,66.1742 58.3456,64.0076 59,61.5C 62.7076,57.2798 66.5409,53.1131 70.5,49C 73.3111,47.1753 76.3111,45.842 79.5,45C 78.5842,44.7216 77.9175,44.2216 77.5,43.5 Z"/></g>
<g><path style="opacity:1" fill="#e2d398" d="M 126.5,43.5 C 138.647,43.2724 150.981,43.2724 163.5,43.5C 163.5,43.8333 163.5,44.1667 163.5,44.5C 162.167,44.5 160.833,44.5 159.5,44.5C 159.5,45.5 159.5,46.5 159.5,47.5C 160.552,47.3505 161.552,47.5172 162.5,48C 159.732,52.9358 156.066,57.1025 151.5,60.5C 150.167,61.5 150.167,62.5 151.5,63.5C 149.234,64.3142 146.9,64.8142 144.5,65C 143.944,65.3826 143.611,65.8826 143.5,66.5C 139.981,65.0364 136.314,64.0364 132.5,63.5C 132.859,61.2341 132.192,59.4007 130.5,58C 132.791,56.6107 134.958,55.1107 137,53.5C 137.519,54.5156 138.353,55.1822 139.5,55.5C 142.531,54.6262 143.531,52.9595 142.5,50.5C 144.531,48.4432 144.531,46.6099 142.5,45C 137.845,44.5008 133.179,44.3342 128.5,44.5C 128.158,43.6618 127.492,43.3284 126.5,43.5 Z"/></g>
<g><path style="opacity:1" fill="#ebe0a2" d="M 163.5,44.5 C 167.514,44.3345 171.514,44.5012 175.5,45C 174.5,45.3333 173.5,45.6667 172.5,46C 174.167,46.3333 175.833,46.6667 177.5,47C 168.012,53.9143 161.012,62.081 156.5,71.5C 155.15,70.0499 153.484,69.3832 151.5,69.5C 148.62,69.0598 145.954,68.0598 143.5,66.5C 143.611,65.8826 143.944,65.3826 144.5,65C 146.9,64.8142 149.234,64.3142 151.5,63.5C 150.167,62.5 150.167,61.5 151.5,60.5C 156.066,57.1025 159.732,52.9358 162.5,48C 161.552,47.5172 160.552,47.3505 159.5,47.5C 159.5,46.5 159.5,45.5 159.5,44.5C 160.833,44.5 162.167,44.5 163.5,44.5 Z"/></g>
<g><path style="opacity:1" fill="#efe5aa" d="M 163.5,44.5 C 163.5,44.1667 163.5,43.8333 163.5,43.5C 173.502,42.2868 182.835,43.9535 191.5,48.5C 187.71,48.0077 187.044,48.841 189.5,51C 186.079,51.101 182.912,51.9343 180,53.5C 177.19,56.6676 174.023,59.5009 170.5,62C 170.833,62.3333 171.167,62.6667 171.5,63C 168.504,66.4604 165.171,69.6271 161.5,72.5C 162.559,74.5336 163.559,76.5336 164.5,78.5C 159.955,75.734 155.622,72.734 151.5,69.5C 153.484,69.3832 155.15,70.0499 156.5,71.5C 161.012,62.081 168.012,53.9143 177.5,47C 175.833,46.6667 174.167,46.3333 172.5,46C 173.5,45.6667 174.5,45.3333 175.5,45C 171.514,44.5012 167.514,44.3345 163.5,44.5 Z"/></g>
<g><path style="opacity:1" fill="#dac78d" d="M 128.5,44.5 C 133.179,44.3342 137.845,44.5008 142.5,45C 144.531,46.6099 144.531,48.4432 142.5,50.5C 143.531,52.9595 142.531,54.6262 139.5,55.5C 138.353,55.1822 137.519,54.5156 137,53.5C 134.958,55.1107 132.791,56.6107 130.5,58C 132.192,59.4007 132.859,61.2341 132.5,63.5C 125.654,61.7754 118.654,61.1088 111.5,61.5C 110.665,60.0568 109.332,59.0568 107.5,58.5C 108.689,57.5713 110.022,57.238 111.5,57.5C 111.286,55.8561 111.62,54.3561 112.5,53C 117.803,51.5297 122.803,49.363 127.5,46.5C 124.893,45.6816 122.226,45.1816 119.5,45C 122.482,44.502 125.482,44.3354 128.5,44.5 Z"/></g>
<g><path style="opacity:1" fill="#d0bb84" d="M 126.5,43.5 C 127.492,43.3284 128.158,43.6618 128.5,44.5C 125.482,44.3354 122.482,44.502 119.5,45C 122.226,45.1816 124.893,45.6816 127.5,46.5C 122.803,49.363 117.803,51.5297 112.5,53C 111.62,54.3561 111.286,55.8561 111.5,57.5C 110.022,57.238 108.689,57.5713 107.5,58.5C 109.332,59.0568 110.665,60.0568 111.5,61.5C 108.15,61.335 104.817,61.5017 101.5,62C 95.7915,63.4039 90.1249,64.9039 84.5,66.5C 84.5,66.1667 84.5,65.8333 84.5,65.5C 88.7088,63.52 93.0421,61.8533 97.5,60.5C 96.9747,59.8076 96.3081,59.3076 95.5,59C 95.8333,58.6667 96.1667,58.3333 96.5,58C 95.5,57.6667 94.5,57.3333 93.5,57C 94.9733,56.2904 95.6399,55.1238 95.5,53.5C 99.1064,53.2108 102.606,53.5442 106,54.5C 106.75,53.8742 107.584,53.3742 108.5,53C 105.785,52.1224 103.451,50.6224 101.5,48.5C 102.729,47.7189 104.062,47.2189 105.5,47C 104.833,46.6667 104.167,46.3333 103.5,46C 106.167,45.6667 108.833,45.3333 111.5,45C 106.177,44.5006 100.844,44.334 95.5,44.5C 95.5,44.1667 95.5,43.8333 95.5,43.5C 105.632,43.3563 115.965,43.3563 126.5,43.5 Z"/></g>
<g><path style="opacity:0.998" fill="#f6eeae" d="M 191.5,48.5 C 193.795,49.4746 195.795,50.8079 197.5,52.5C 197.703,54.0443 198.37,55.3777 199.5,56.5C 198.349,57.731 197.183,57.731 196,56.5C 194.583,57.0779 193.75,58.0779 193.5,59.5C 192.078,59.7086 190.745,60.2086 189.5,61C 186.203,67.1342 181.536,71.6342 175.5,74.5C 174.82,78.322 172.487,79.9886 168.5,79.5C 167.609,78.8902 166.609,78.5569 165.5,78.5C 165.167,78.5 164.833,78.5 164.5,78.5C 163.559,76.5336 162.559,74.5336 161.5,72.5C 165.171,69.6271 168.504,66.4604 171.5,63C 171.167,62.6667 170.833,62.3333 170.5,62C 174.023,59.5009 177.19,56.6676 180,53.5C 182.912,51.9343 186.079,51.101 189.5,51C 187.044,48.841 187.71,48.0077 191.5,48.5 Z"/></g>
<g><path style="opacity:1" fill="#b49567" d="M 63.5,43.5 C 61.6916,43.4914 60.0249,43.9914 58.5,45C 60.8333,45.3333 63.1667,45.6667 65.5,46C 63.9737,48.7056 61.9737,51.039 59.5,53C 60.8333,53.6667 60.8333,54.3333 59.5,55C 58.2068,55.49 56.8734,55.6567 55.5,55.5C 55.762,56.9778 55.4287,58.3112 54.5,59.5C 47.399,55.8014 43.2323,57.8014 42,65.5C 43.5843,64.1387 45.4176,63.472 47.5,63.5C 47.7035,65.3904 47.0368,66.8904 45.5,68C 41.0567,70.534 36.39,72.3674 31.5,73.5C 31.762,72.0222 31.4287,70.6888 30.5,69.5C 29.914,69.7093 29.414,70.0426 29,70.5C 27.636,73.8747 27.3027,77.5413 28,81.5C 27.3005,83.032 26.1338,84.032 24.5,84.5C 23.6143,85.325 23.281,86.325 23.5,87.5C 21.549,87.7733 20.049,87.1066 19,85.5C 18.5831,86.756 17.7498,87.4226 16.5,87.5C 16.5194,65.2964 27.1861,50.7964 48.5,44C 52.8632,43.7095 57.1965,43.2095 61.5,42.5C 62.4164,42.5427 63.0831,42.8761 63.5,43.5 Z"/></g>
<g><path style="opacity:1" fill="#faf4b2" d="M 168.5,79.5 C 172.487,79.9886 174.82,78.322 175.5,74.5C 181.536,71.6342 186.203,67.1342 189.5,61C 190.745,60.2086 192.078,59.7086 193.5,59.5C 194.156,60.2778 194.989,60.9444 196,61.5C 197.667,60.5 199.333,59.5 201,58.5C 204.869,60.0619 205.036,61.0619 201.5,61.5C 200.455,65.0673 198.455,68.0673 195.5,70.5C 190.869,72.26 186.869,74.9266 183.5,78.5C 184.833,79.1667 186.167,79.8333 187.5,80.5C 182.732,79.8717 178.732,81.5384 175.5,85.5C 172.536,84.1921 170.203,82.1921 168.5,79.5 Z"/></g>
<g><path style="opacity:0.999" fill="#f6efb1" d="M 197.5,52.5 C 203.417,56.414 207.417,61.7474 209.5,68.5C 209.663,70.8568 209.497,73.1902 209,75.5C 207.812,74.4366 207.312,73.1033 207.5,71.5C 204.478,71.804 201.478,72.304 198.5,73C 197.308,74.9124 196.308,76.9124 195.5,79C 193.5,79.3333 191.5,79.6667 189.5,80C 188.431,82.9312 186.598,84.0979 184,83.5C 183.105,86.4663 183.605,89.1329 185.5,91.5C 185.192,92.3081 184.692,92.9747 184,93.5C 180.516,88.2888 179.682,88.9554 181.5,95.5C 176.871,89.2034 171.538,83.5367 165.5,78.5C 166.609,78.5569 167.609,78.8902 168.5,79.5C 170.203,82.1921 172.536,84.1921 175.5,85.5C 178.732,81.5384 182.732,79.8717 187.5,80.5C 186.167,79.8333 184.833,79.1667 183.5,78.5C 186.869,74.9266 190.869,72.26 195.5,70.5C 198.455,68.0673 200.455,65.0673 201.5,61.5C 205.036,61.0619 204.869,60.0619 201,58.5C 199.333,59.5 197.667,60.5 196,61.5C 194.989,60.9444 194.156,60.2778 193.5,59.5C 193.75,58.0779 194.583,57.0779 196,56.5C 197.183,57.731 198.349,57.731 199.5,56.5C 198.37,55.3777 197.703,54.0443 197.5,52.5 Z"/></g>
<g><path style="opacity:0.996" fill="#a47d3e" d="M 322.5,63.5 C 322.5,65.1667 322.5,66.8333 322.5,68.5C 321.669,80.3263 321.169,92.3263 321,104.5C 320.667,103.833 320.333,103.167 320,102.5C 319,103.833 318,103.833 317,102.5C 316.676,104.569 315.842,104.902 314.5,103.5C 313.501,89.5159 313.167,75.5159 313.5,61.5C 316.739,61.4129 319.739,62.0795 322.5,63.5 Z"/></g>
<g><path style="opacity:1" fill="#bda16f" d="M 63.5,43.5 C 68.1667,43.5 72.8333,43.5 77.5,43.5C 77.9175,44.2216 78.5842,44.7216 79.5,45C 76.3111,45.842 73.3111,47.1753 70.5,49C 66.5409,53.1131 62.7076,57.2798 59,61.5C 58.3456,64.0076 57.179,66.1742 55.5,68C 56.3081,68.3076 56.9747,68.8076 57.5,69.5C 54.4642,70.8665 51.4642,72.1999 48.5,73.5C 48.1667,75.5 47.8333,77.5 47.5,79.5C 46.7784,79.9175 46.2784,80.5842 46,81.5C 45.9566,78.7828 44.9566,78.1161 43,79.5C 41.8484,77.4883 40.6817,77.3217 39.5,79C 36.5,79.3333 33.5,79.6667 30.5,80C 29.7402,81.4411 29.0736,82.9411 28.5,84.5C 29.4446,88.628 28.1113,91.9614 24.5,94.5C 23.5258,92.2573 23.1924,89.924 23.5,87.5C 23.281,86.325 23.6143,85.325 24.5,84.5C 26.1338,84.032 27.3005,83.032 28,81.5C 27.3027,77.5413 27.636,73.8747 29,70.5C 29.414,70.0426 29.914,69.7093 30.5,69.5C 31.4287,70.6888 31.762,72.0222 31.5,73.5C 36.39,72.3674 41.0567,70.534 45.5,68C 47.0368,66.8904 47.7035,65.3904 47.5,63.5C 45.4176,63.472 43.5843,64.1387 42,65.5C 43.2323,57.8014 47.399,55.8014 54.5,59.5C 55.4287,58.3112 55.762,56.9778 55.5,55.5C 56.8734,55.6567 58.2068,55.49 59.5,55C 60.8333,54.3333 60.8333,53.6667 59.5,53C 61.9737,51.039 63.9737,48.7056 65.5,46C 63.1667,45.6667 60.8333,45.3333 58.5,45C 60.0249,43.9914 61.6916,43.4914 63.5,43.5 Z"/></g>
<g><path style="opacity:1" fill="#c8ae7b" d="M 92.5,45.5 C 92.9175,46.2216 93.5842,46.7216 94.5,47C 89.8878,50.2788 85.8878,54.2788 82.5,59C 83.2301,61.154 83.8968,63.3206 84.5,65.5C 84.5,65.8333 84.5,66.1667 84.5,66.5C 66.8748,74.4741 53.2082,86.8074 43.5,103.5C 43.5751,100.794 43.9084,98.1272 44.5,95.5C 43.5,95.5 42.5,95.5 41.5,95.5C 41.7709,97.3797 41.1042,98.713 39.5,99.5C 38.016,98.5267 37.516,97.1933 38,95.5C 40.9628,93.5394 43.6294,91.206 46,88.5C 46.4828,89.448 46.6495,90.448 46.5,91.5C 52.6569,90.1598 52.9902,87.8265 47.5,84.5C 47.5569,83.391 47.8902,82.391 48.5,81.5C 51.7692,79.8654 55.1026,78.1987 58.5,76.5C 57.624,75.7492 56.624,75.2492 55.5,75C 60.216,73.1602 63.8826,70.1602 66.5,66C 68.5767,65.8078 70.5767,65.3078 72.5,64.5C 72.1667,63.8333 71.8333,63.1667 71.5,62.5C 73.7419,60.4612 76.2419,58.7946 79,57.5C 80.1071,53.7259 82.6071,51.2259 86.5,50C 86.1667,49.6667 85.8333,49.3333 85.5,49C 86.9733,48.2904 87.6399,47.1238 87.5,45.5C 89.1667,45.5 90.8333,45.5 92.5,45.5 Z"/></g>
<g><path style="opacity:1" fill="#9a6f37" d="M 286.5,70.5 C 287.761,73.0987 289.427,75.432 291.5,77.5C 290.516,79.4799 289.183,81.1466 287.5,82.5C 278.585,77.0246 268.919,75.1913 258.5,77C 255.249,77.7201 252.249,78.8868 249.5,80.5C 246.36,79.3592 243.027,79.1925 239.5,80C 238.035,84.7829 236.368,89.2829 234.5,93.5C 236.212,74.8014 246.545,66.1347 265.5,67.5C 272.685,67.338 279.685,68.338 286.5,70.5 Z"/></g>
<g><path style="opacity:1" fill="#c1a572" d="M 47.5,79.5 C 47.8333,80.1667 48.1667,80.8333 48.5,81.5C 47.8902,82.391 47.5569,83.391 47.5,84.5C 45.1177,85.1993 43.1177,86.5326 41.5,88.5C 37.1603,93.0909 33.327,98.0909 30,103.5C 29.6667,103.167 29.3333,102.833 29,102.5C 25.3413,104.275 22.508,106.275 20.5,108.5C 19.2798,107.289 18.1131,107.289 17,108.5C 16.502,105.518 16.3354,102.518 16.5,99.5C 15.1667,95.5 15.1667,91.5 16.5,87.5C 17.7498,87.4226 18.5831,86.756 19,85.5C 20.049,87.1066 21.549,87.7733 23.5,87.5C 23.1924,89.924 23.5258,92.2573 24.5,94.5C 28.1113,91.9614 29.4446,88.628 28.5,84.5C 29.0736,82.9411 29.7402,81.4411 30.5,80C 33.5,79.6667 36.5,79.3333 39.5,79C 40.6817,77.3217 41.8484,77.4883 43,79.5C 44.9566,78.1161 45.9566,78.7828 46,81.5C 46.2784,80.5842 46.7784,79.9175 47.5,79.5 Z"/></g>
<g><path style="opacity:1" fill="#c7ac65" d="M 501.5,71.5 C 507.254,72.6573 507.587,74.1573 502.5,76C 494.688,76.8772 487.021,77.7106 479.5,78.5C 477.856,78.2865 476.356,78.6198 475,79.5C 474.501,84.4889 474.334,89.4889 474.5,94.5C 474.666,101.841 474.5,109.174 474,116.5C 472.302,117.529 471.468,119.029 471.5,121C 472.456,122.948 472.789,124.782 472.5,126.5C 470.599,127.231 468.599,127.231 466.5,126.5C 466.5,124.5 466.5,122.5 466.5,120.5C 466.334,116.998 467.334,113.998 469.5,111.5C 470.268,110.737 470.768,109.737 471,108.5C 471.333,109.167 471.667,109.833 472,110.5C 472.564,104.74 472.064,99.0734 470.5,93.5C 471.167,91.5 471.833,89.5 472.5,87.5C 471.559,87.5105 470.892,87.0105 470.5,86C 470.645,85.228 470.978,84.5613 471.5,84C 465.924,74.4289 468.258,71.2622 478.5,74.5C 485.117,73.7038 491.783,73.2038 498.5,73C 499.737,72.7679 500.737,72.2679 501.5,71.5 Z"/></g>
<g><path style="opacity:1" fill="#c4ab71" d="M 137.5,93.5 C 139.388,96.8991 141.888,99.8991 145,102.5C 145.497,105.146 145.664,107.813 145.5,110.5C 144.041,110.567 142.708,110.234 141.5,109.5C 137.823,104.159 133.49,99.4923 128.5,95.5C 126.833,91.8333 124.167,89.1667 120.5,87.5C 120.5,86.8333 120.5,86.1667 120.5,85.5C 119.797,83.2843 118.464,81.451 116.5,80C 117.167,79.3333 117.833,78.6667 118.5,78C 116.963,76.8904 116.297,75.3904 116.5,73.5C 115.167,73.5 113.833,73.5 112.5,73.5C 113.527,72.1522 114.86,71.6522 116.5,72C 121.706,77.2035 126.539,82.7035 131,88.5C 132.777,90.7899 134.944,92.4566 137.5,93.5 Z"/></g>
<g><path style="opacity:0.867" fill="#a4855a" d="M 286.5,70.5 C 287.882,71.8005 289.548,72.6339 291.5,73C 292.804,73.804 293.471,74.9707 293.5,76.5C 292.255,79.9004 290.422,82.9004 288,85.5C 277.962,79.1598 267.128,77.3265 255.5,80C 247.188,84.6422 245.354,91.1422 250,99.5C 251.833,100.667 253.667,101.833 255.5,103C 264.174,105.001 272.841,107.001 281.5,109C 290.512,112.175 296.178,118.342 298.5,127.5C 297.624,127.631 296.957,127.298 296.5,126.5C 295.481,124.396 294.481,122.396 293.5,120.5C 291.299,117.979 288.966,115.479 286.5,113C 276.892,110.372 267.558,107.872 258.5,105.5C 254.601,104.802 251.101,103.135 248,100.5C 245.578,93.4878 246.078,86.8211 249.5,80.5C 252.249,78.8868 255.249,77.7201 258.5,77C 268.919,75.1913 278.585,77.0246 287.5,82.5C 289.183,81.1466 290.516,79.4799 291.5,77.5C 289.427,75.432 287.761,73.0987 286.5,70.5 Z"/></g>
<g><path style="opacity:1" fill="#e8dea2" d="M 209.5,68.5 C 212.02,73.0783 213.353,78.0783 213.5,83.5C 212.517,87.2984 212.183,91.2984 212.5,95.5C 211.698,94.0484 211.198,92.3817 211,90.5C 206.299,98.0347 200.132,104.035 192.5,108.5C 191.914,108.291 191.414,107.957 191,107.5C 191.568,110.996 192.402,114.496 193.5,118C 193.272,118.399 192.938,118.565 192.5,118.5C 189.126,110.75 185.459,103.084 181.5,95.5C 179.682,88.9554 180.516,88.2888 184,93.5C 184.692,92.9747 185.192,92.3081 185.5,91.5C 183.605,89.1329 183.105,86.4663 184,83.5C 186.598,84.0979 188.431,82.9312 189.5,80C 191.5,79.6667 193.5,79.3333 195.5,79C 196.308,76.9124 197.308,74.9124 198.5,73C 201.478,72.304 204.478,71.804 207.5,71.5C 207.312,73.1033 207.812,74.4366 209,75.5C 209.497,73.1902 209.663,70.8568 209.5,68.5 Z"/></g>
<g><path style="opacity:0.039" fill="#b5a6a6" d="M 376.5,93.5 C 375.167,93.5 374.5,92.8333 374.5,91.5C 376.203,90.3398 376.869,91.0065 376.5,93.5 Z"/></g>
<g><path style="opacity:1" fill="#ad8d57" d="M 112.5,73.5 C 113.833,73.5 115.167,73.5 116.5,73.5C 116.297,75.3904 116.963,76.8904 118.5,78C 117.833,78.6667 117.167,79.3333 116.5,80C 118.464,81.451 119.797,83.2843 120.5,85.5C 118.519,83.8564 116.519,82.1897 114.5,80.5C 113.081,81.0047 112.415,82.0047 112.5,83.5C 111.833,83.5 111.5,83.8333 111.5,84.5C 110.833,84.5 110.5,84.8333 110.5,85.5C 109.833,85.5 109.5,85.8333 109.5,86.5C 104.438,90.5593 100.105,95.226 96.5,100.5C 95.8333,100.5 95.5,100.833 95.5,101.5C 94.8333,101.5 94.5,101.833 94.5,102.5C 93.5,102.833 92.8333,103.5 92.5,104.5C 89.7573,106.239 87.7573,108.573 86.5,111.5C 84.2858,110.608 83.2858,108.942 83.5,106.5C 84.0567,103.954 85.0567,101.621 86.5,99.5C 88.5,99.5 89.5,98.5 89.5,96.5C 91.1436,96.1898 92.1436,95.1898 92.5,93.5C 99.1667,86.8333 105.833,80.1667 112.5,73.5 Z"/></g>
<g><path style="opacity:0.39" fill="#9b774f" d="M 113.5,94.5 C 114.5,94.5 115.5,94.5 116.5,94.5C 116.833,95.5 117.5,96.1667 118.5,96.5C 118.5,98.1667 118.5,99.8333 118.5,101.5C 112.362,103.69 110.029,101.69 111.5,95.5C 112.492,95.6716 113.158,95.3382 113.5,94.5 Z"/></g>
<g><path style="opacity:1" fill="#ad9160" d="M 374.5,91.5 C 366.478,99.8524 357.812,107.519 348.5,114.5C 347.624,114.631 346.957,114.298 346.5,113.5C 349.217,112.284 351.05,110.284 352,107.5C 355.378,105.105 358.711,102.771 362,100.5C 362.311,98.444 362.811,96.444 363.5,94.5C 365.966,93.8765 368.299,93.0432 370.5,92C 366.833,91.3333 363.167,91.3333 359.5,92C 356.416,93.6852 354.416,96.1852 353.5,99.5C 350.412,99.6386 347.745,100.639 345.5,102.5C 345.66,104.199 345.494,105.866 345,107.5C 341.549,109.137 338.382,111.137 335.5,113.5C 331.125,117.354 326.292,120.687 321,123.5C 320.5,123.167 320,122.833 319.5,122.5C 321.13,119.422 321.963,116.089 322,112.5C 322.383,111.944 322.883,111.611 323.5,111.5C 323.25,114.214 323.083,116.881 323,119.5C 335.033,110.815 346.533,101.315 357.5,91C 362.718,89.4372 368.051,89.1038 373.5,90C 374.056,90.3826 374.389,90.8826 374.5,91.5 Z"/></g>
<g><path style="opacity:1" fill="#b6995e" d="M 406.5,123.5 C 404.567,122.358 403.067,120.692 402,118.5C 400.956,119.623 400.29,120.956 400,122.5C 399.5,122 399,121.5 398.5,121C 399.894,119.261 400.561,117.261 400.5,115C 398.494,111.35 396.66,107.517 395,103.5C 392.432,105.203 391.932,107.369 393.5,110C 391.249,112.002 390.249,114.502 390.5,117.5C 386.566,110.014 382.733,102.347 379,94.5C 377.841,95.566 377.008,95.2327 376.5,93.5C 377.249,92.469 377.915,91.3024 378.5,90C 382.5,89.3333 386.5,89.3333 390.5,90C 396.117,101.01 401.45,112.177 406.5,123.5 Z"/></g>
<g><path style="opacity:1" fill="#dbcb8b" d="M 555.5,113.5 C 556.098,108.548 558.598,104.881 563,102.5C 563.18,100.512 563.014,98.5116 562.5,96.5C 561.167,96.5 559.833,96.5 558.5,96.5C 558.505,100 556.838,101.5 553.5,101C 552.544,97.6064 552.211,94.1064 552.5,90.5C 550.265,90.7947 548.265,90.4614 546.5,89.5C 549.119,89.2317 551.619,89.565 554,90.5C 554.333,93.1667 554.667,95.8333 555,98.5C 566.239,88.2747 579.072,85.7747 593.5,91C 595.759,92.7146 597.926,94.5479 600,96.5C 600.667,97.8333 600.667,99.1667 600,100.5C 598,102.5 596,104.5 594,106.5C 579.046,96.2725 566.213,98.6058 555.5,113.5 Z"/></g>
<g><path style="opacity:0.987" fill="#ede192" d="M 633.5,88.5 C 633.369,89.3764 633.702,90.0431 634.5,90.5C 639.446,89.3857 644.446,89.219 649.5,90C 654.43,92.0196 659.43,93.8529 664.5,95.5C 665.188,99.1959 666.854,102.363 669.5,105C 668.381,106.876 666.714,107.709 664.5,107.5C 664.264,105.027 662.931,103.36 660.5,102.5C 656.591,101.085 652.591,100.085 648.5,99.5C 645.5,99.5 642.5,99.5 639.5,99.5C 638.929,98.0267 638.929,96.36 639.5,94.5C 635.852,96.6426 631.852,97.6426 627.5,97.5C 627.64,95.8762 626.973,94.7096 625.5,94C 627.608,92.0702 629.941,90.5702 632.5,89.5C 632.5,88.8333 632.833,88.5 633.5,88.5 Z"/></g>
<g><path style="opacity:1" fill="#986930" d="M 249.5,80.5 C 246.078,86.8211 245.578,93.4878 248,100.5C 251.101,103.135 254.601,104.802 258.5,105.5C 259.347,106.966 260.68,107.8 262.5,108C 260.065,108.853 257.731,109.853 255.5,111C 256.949,112.117 258.616,112.784 260.5,113C 257.5,113.667 254.5,113.667 251.5,113C 249.783,111.441 247.783,110.608 245.5,110.5C 247.659,105.086 245.992,100.753 240.5,97.5C 239.749,98.376 239.249,99.376 239,100.5C 237.595,99.2695 236.429,97.9361 235.5,96.5C 235.443,95.391 235.11,94.391 234.5,93.5C 236.368,89.2829 238.035,84.7829 239.5,80C 243.027,79.1925 246.36,79.3592 249.5,80.5 Z"/></g>
<g><path style="opacity:1" fill="#a57d42" d="M 92.5,93.5 C 90.5,93.5 89.5,94.5 89.5,96.5C 88.609,97.1098 87.609,97.4431 86.5,97.5C 84.9557,97.7031 83.6223,98.3698 82.5,99.5C 81.7838,101.482 80.6171,103.149 79,104.5C 78.5779,106.355 78.0779,108.189 77.5,110C 74.9358,112.56 72.7692,115.393 71,118.5C 69.6667,117.167 68.3333,115.833 67,114.5C 66.5814,115.672 65.9147,116.672 65,117.5C 64.79,115.942 64.29,114.609 63.5,113.5C 64.6296,105.725 66.2963,98.0579 68.5,90.5C 76.4792,89.3351 84.4792,89.1684 92.5,90C 93.1712,90.9862 93.1712,92.1529 92.5,93.5 Z"/></g>
<g><path style="opacity:0.837" fill="#cbb279" d="M 527.5,112.5 C 526.596,111.791 526.263,110.791 526.5,109.5C 528.492,107.014 529.826,104.18 530.5,101C 529.613,96.1763 528.779,91.3429 528,86.5C 524.481,83.3146 521.314,79.8146 518.5,76C 514.581,74.1382 510.581,72.4715 506.5,71C 492.66,70.1728 478.994,70.3395 465.5,71.5C 464.876,71.9169 464.543,72.5836 464.5,73.5C 464.939,75.1043 465.606,76.6043 466.5,78C 466.192,89.1209 466.192,100.288 466.5,111.5C 467.5,111.5 468.5,111.5 469.5,111.5C 467.334,113.998 466.334,116.998 466.5,120.5C 465.173,125.443 464.173,130.443 463.5,135.5C 463.333,113.831 463.5,92.1641 464,70.5C 464.667,69.8333 465.333,69.1667 466,68.5C 479.758,69.3241 493.592,69.8241 507.5,70C 525.397,74.6241 533.231,86.1241 531,104.5C 530.295,107.476 529.129,110.142 527.5,112.5 Z"/></g>
<g><path style="opacity:1" fill="#d0b973" d="M 465.5,71.5 C 478.994,70.3395 492.66,70.1728 506.5,71C 510.581,72.4715 514.581,74.1382 518.5,76C 521.314,79.8146 524.481,83.3146 528,86.5C 528.779,91.3429 529.613,96.1763 530.5,101C 529.826,104.18 528.492,107.014 526.5,109.5C 524.019,112.038 521.686,111.704 519.5,108.5C 519.841,101.5 519.341,94.5 518,87.5C 514.425,82.4643 509.592,79.631 503.5,79C 495.507,78.5003 487.507,78.3336 479.5,78.5C 487.021,77.7106 494.688,76.8772 502.5,76C 507.587,74.1573 507.254,72.6573 501.5,71.5C 489.5,71.5 477.5,71.5 465.5,71.5 Z"/></g>
<g><path style="opacity:1" fill="#c5ab65" d="M 465.5,71.5 C 477.5,71.5 489.5,71.5 501.5,71.5C 500.737,72.2679 499.737,72.7679 498.5,73C 491.783,73.2038 485.117,73.7038 478.5,74.5C 468.258,71.2622 465.924,74.4289 471.5,84C 470.978,84.5613 470.645,85.228 470.5,86C 470.892,87.0105 471.559,87.5105 472.5,87.5C 471.833,89.5 471.167,91.5 470.5,93.5C 472.064,99.0734 472.564,104.74 472,110.5C 471.667,109.833 471.333,109.167 471,108.5C 470.768,109.737 470.268,110.737 469.5,111.5C 468.5,111.5 467.5,111.5 466.5,111.5C 466.192,100.288 466.192,89.1209 466.5,78C 465.606,76.6043 464.939,75.1043 464.5,73.5C 464.543,72.5836 464.876,71.9169 465.5,71.5 Z"/></g>
<g><path style="opacity:0.986" fill="#bd9f63" d="M 119.5,87.5 C 119.833,87.5 120.167,87.5 120.5,87.5C 122.833,90.5 125.5,93.1667 128.5,95.5C 129.11,96.391 129.443,97.391 129.5,98.5C 131.331,101.118 132.831,103.785 134,106.5C 129.993,107.941 125.826,108.774 121.5,109C 120.944,109.383 120.611,109.883 120.5,110.5C 119.57,114.4 119.237,118.4 119.5,122.5C 119.017,126.513 120.684,128.846 124.5,129.5C 113.828,129.667 103.161,129.5 92.5,129C 91.5286,123.928 91.1953,118.762 91.5,113.5C 92.1174,113.611 92.6174,113.944 93,114.5C 93.2117,117.758 93.7117,120.924 94.5,124C 95.4162,124.374 96.2496,124.874 97,125.5C 97.1909,123.292 97.6909,121.292 98.5,119.5C 98.7619,121.564 99.9286,122.897 102,123.5C 104.72,122.689 107.22,122.689 109.5,123.5C 110.646,122.855 111.646,122.022 112.5,121C 111.663,119.989 111.33,118.822 111.5,117.5C 112.117,117.611 112.617,117.944 113,118.5C 113.167,117 113.333,115.5 113.5,114C 112.896,111.113 112.229,108.28 111.5,105.5C 113.179,105.715 114.179,105.048 114.5,103.5C 116.483,103.843 117.817,103.176 118.5,101.5C 121.167,99.8333 121.167,98.1667 118.5,96.5C 118.5,95.1667 117.833,94.5 116.5,94.5C 115.5,93.1667 114.5,93.1667 113.5,94.5C 112.833,94.5 112.167,94.5 111.5,94.5C 113.988,92.6122 116.988,91.9455 120.5,92.5C 120.371,90.7839 120.038,89.1172 119.5,87.5 Z"/></g>
<g><path style="opacity:1" fill="#c9ae7b" d="M 47.5,84.5 C 52.9902,87.8265 52.6569,90.1598 46.5,91.5C 46.6495,90.448 46.4828,89.448 46,88.5C 43.6294,91.206 40.9628,93.5394 38,95.5C 37.516,97.1933 38.016,98.5267 39.5,99.5C 40.0344,103.478 38.5344,106.478 35,108.5C 34.5172,109.448 34.3505,110.448 34.5,111.5C 30.1382,110.858 26.8048,112.358 24.5,116C 23.552,116.483 22.552,116.649 21.5,116.5C 20.4236,117.379 19.5903,119.046 19,121.5C 18.6667,120.833 18.3333,120.167 18,119.5C 17.8171,122.365 17.3171,125.031 16.5,127.5C 15.9778,117.989 15.9778,108.656 16.5,99.5C 16.3354,102.518 16.502,105.518 17,108.5C 18.1131,107.289 19.2798,107.289 20.5,108.5C 22.508,106.275 25.3413,104.275 29,102.5C 29.3333,102.833 29.6667,103.167 30,103.5C 33.327,98.0909 37.1603,93.0909 41.5,88.5C 43.1177,86.5326 45.1177,85.1993 47.5,84.5 Z"/></g>
<g><path style="opacity:1" fill="#a8854b" d="M 164.5,103.5 C 163.883,103.389 163.383,103.056 163,102.5C 162.821,105.553 162.321,108.553 161.5,111.5C 157.742,114.581 153.409,116.414 148.5,117C 149.016,120.013 148.016,122.68 145.5,125C 144.216,125.684 143.049,125.517 142,124.5C 141.844,121.809 141.011,119.476 139.5,117.5C 139.5,116.5 139.5,115.5 139.5,114.5C 138.595,113.298 138.595,111.964 139.5,110.5C 139.842,109.662 140.508,109.328 141.5,109.5C 142.708,110.234 144.041,110.567 145.5,110.5C 146.148,112.086 146.648,113.753 147,115.5C 147.667,111.167 147.667,106.833 147,102.5C 143.964,99.2956 140.797,96.2956 137.5,93.5C 136.766,92.2921 136.433,90.9587 136.5,89.5C 144.42,89.815 152.253,89.4817 160,88.5C 162.312,93.204 163.812,98.204 164.5,103.5 Z"/></g>
<g><path style="opacity:1" fill="#9d733a" d="M 235.5,96.5 C 236.429,97.9361 237.595,99.2695 239,100.5C 239.249,99.376 239.749,98.376 240.5,97.5C 245.992,100.753 247.659,105.086 245.5,110.5C 247.783,110.608 249.783,111.441 251.5,113C 254.5,113.667 257.5,113.667 260.5,113C 258.616,112.784 256.949,112.117 255.5,111C 257.731,109.853 260.065,108.853 262.5,108C 260.68,107.8 259.347,106.966 258.5,105.5C 267.558,107.872 276.892,110.372 286.5,113C 288.966,115.479 291.299,117.979 293.5,120.5C 293.799,122.604 293.466,124.604 292.5,126.5C 291.167,124.833 289.833,123.167 288.5,121.5C 287.784,122.311 286.95,122.978 286,123.5C 284.075,121.915 281.909,120.748 279.5,120C 277.934,119.235 276.601,119.402 275.5,120.5C 265.315,118.362 255.315,115.529 245.5,112C 239.942,108.274 236.609,103.107 235.5,96.5 Z"/></g>
<g><path style="opacity:1" fill="#ae8c4d" d="M 86.5,97.5 C 86.5,98.1667 86.5,98.8333 86.5,99.5C 84.8712,100.625 83.3712,101.959 82,103.5C 81.7997,107.334 81.6331,111.001 81.5,114.5C 82.8854,119.813 80.8854,122.313 75.5,122C 74.9288,123.205 74.2621,124.372 73.5,125.5C 69.9062,126.426 66.2396,126.759 62.5,126.5C 62.7678,124.901 62.4345,123.568 61.5,122.5C 61.2153,119.171 61.8819,116.171 63.5,113.5C 64.29,114.609 64.79,115.942 65,117.5C 65.9147,116.672 66.5814,115.672 67,114.5C 68.3333,115.833 69.6667,117.167 71,118.5C 72.7692,115.393 74.9358,112.56 77.5,110C 78.0779,108.189 78.5779,106.355 79,104.5C 80.6171,103.149 81.7838,101.482 82.5,99.5C 83.6223,98.3698 84.9557,97.7031 86.5,97.5 Z"/></g>
<g><path style="opacity:1" fill="#ac884e" d="M 119.5,87.5 C 120.038,89.1172 120.371,90.7839 120.5,92.5C 116.988,91.9455 113.988,92.6122 111.5,94.5C 111.5,94.8333 111.5,95.1667 111.5,95.5C 109.559,97.0106 109.059,99.0106 110,101.5C 111.11,103.037 112.61,103.703 114.5,103.5C 114.179,105.048 113.179,105.715 111.5,105.5C 112.229,108.28 112.896,111.113 113.5,114C 113.333,115.5 113.167,117 113,118.5C 112.617,117.944 112.117,117.611 111.5,117.5C 111.5,115.167 111.5,112.833 111.5,110.5C 107.486,110.334 103.486,110.501 99.5,111C 99.3981,113.819 99.0647,116.652 98.5,119.5C 97.6909,121.292 97.1909,123.292 97,125.5C 96.2496,124.874 95.4162,124.374 94.5,124C 93.7117,120.924 93.2117,117.758 93,114.5C 92.6174,113.944 92.1174,113.611 91.5,113.5C 91.5263,112.184 91.1929,110.684 90.5,109C 91.5822,107.67 92.2488,106.17 92.5,104.5C 93.8333,104.5 94.5,103.833 94.5,102.5C 95.1667,102.5 95.5,102.167 95.5,101.5C 96.1667,101.5 96.5,101.167 96.5,100.5C 101.562,96.4407 105.895,91.774 109.5,86.5C 110.167,86.5 110.5,86.1667 110.5,85.5C 111.167,85.5 111.5,85.1667 111.5,84.5C 112.167,84.5 112.5,84.1667 112.5,83.5C 115.611,82.8507 117.944,84.184 119.5,87.5 Z"/></g>
<g><path style="opacity:1" fill="#e6d789" d="M 615.5,135.5 C 615.5,136.833 615.5,138.167 615.5,139.5C 614.448,139.351 613.448,139.517 612.5,140C 613.337,141.011 613.67,142.178 613.5,143.5C 620.916,142.602 621.249,143.935 614.5,147.5C 612.733,145.575 610.566,144.242 608,143.5C 607.333,142.167 606.667,140.833 606,139.5C 605.12,130.518 604.62,121.518 604.5,112.5C 606.119,110.881 607.785,109.215 609.5,107.5C 610.234,109.815 611.568,111.648 613.5,113C 610.225,115.27 608.891,118.437 609.5,122.5C 610.5,122.5 611.5,122.5 612.5,122.5C 611.839,127.393 612.839,131.726 615.5,135.5 Z"/></g>
<g><path style="opacity:0.995" fill="#e7d891" d="M 632.5,89.5 C 629.941,90.5702 627.608,92.0702 625.5,94C 626.973,94.7096 627.64,95.8762 627.5,97.5C 631.852,97.6426 635.852,96.6426 639.5,94.5C 638.929,96.36 638.929,98.0267 639.5,99.5C 625.474,100.361 617.308,107.694 615,121.5C 614.667,126.174 614.833,130.84 615.5,135.5C 612.839,131.726 611.839,127.393 612.5,122.5C 611.5,122.5 610.5,122.5 609.5,122.5C 608.891,118.437 610.225,115.27 613.5,113C 611.568,111.648 610.234,109.815 609.5,107.5C 607.785,109.215 606.119,110.881 604.5,112.5C 609.047,99.2006 618.38,91.534 632.5,89.5 Z"/></g>
<g><path style="opacity:0.91" fill="#a18055" d="M 129.5,122.5 C 128.041,122.567 126.708,122.234 125.5,121.5C 124.833,121.5 124.5,121.833 124.5,122.5C 123.833,122.5 123.167,122.5 122.5,122.5C 120.568,119.823 120.068,116.823 121,113.5C 129,109.167 132.333,111.5 131,120.5C 130.283,121.044 129.783,121.711 129.5,122.5 Z"/></g>
<g><path style="opacity:1" fill="#a7814a" d="M 322.5,63.5 C 319.739,62.0795 316.739,61.4129 313.5,61.5C 313.167,75.5159 313.501,89.5159 314.5,103.5C 315.842,104.902 316.676,104.569 317,102.5C 318,103.833 319,103.833 320,102.5C 320.333,103.167 320.667,103.833 321,104.5C 321.169,92.3263 321.669,80.3263 322.5,68.5C 322.255,82.8582 322.588,97.1915 323.5,111.5C 322.883,111.611 322.383,111.944 322,112.5C 321.963,116.089 321.13,119.422 319.5,122.5C 320,122.833 320.5,123.167 321,123.5C 326.292,120.687 331.125,117.354 335.5,113.5C 336.531,116.633 336.531,119.467 335.5,122C 330.806,125.223 325.473,128.389 319.5,131.5C 317.003,131.273 315.336,129.94 314.5,127.5C 313.501,137.812 313.168,148.145 313.5,158.5C 316.5,158.5 319.5,158.5 322.5,158.5C 322.611,159.117 322.944,159.617 323.5,160C 322.234,160.309 321.067,160.809 320,161.5C 317,160.833 314,160.167 311,159.5C 310.829,127.262 310.329,95.0951 309.5,63C 309.989,60.5096 311.323,58.6763 313.5,57.5C 316.044,57.6225 318.544,57.6225 321,57.5C 322.057,59.2194 322.89,61.0528 323.5,63C 323.272,63.3988 322.938,63.5654 322.5,63.5 Z"/></g>
<g><path style="opacity:1" fill="#e2d396" d="M 212.5,95.5 C 212.5,100.833 212.5,106.167 212.5,111.5C 211.732,110.737 211.232,109.737 211,108.5C 209.561,110.275 208.561,112.275 208,114.5C 207.692,113.692 207.192,113.025 206.5,112.5C 205.168,116.89 202.334,119.556 198,120.5C 197.823,124.356 197.323,128.023 196.5,131.5C 196.34,129.847 195.674,128.514 194.5,127.5C 193.366,124.63 192.7,121.63 192.5,118.5C 192.938,118.565 193.272,118.399 193.5,118C 192.402,114.496 191.568,110.996 191,107.5C 191.414,107.957 191.914,108.291 192.5,108.5C 200.132,104.035 206.299,98.0347 211,90.5C 211.198,92.3817 211.698,94.0484 212.5,95.5 Z"/></g>
<g><path style="opacity:1" fill="#cbb37c" d="M 43.5,103.5 C 42.5041,103.414 41.6708,103.748 41,104.5C 37.3028,111.847 34.3028,119.181 32,126.5C 31.3162,125.216 31.4829,124.049 32.5,123C 32,122.5 31.5,122 31,121.5C 30.6541,123.848 29.4875,125.681 27.5,127C 28.0606,128.566 27.3939,129.899 25.5,131C 25.8333,131.333 26.1667,131.667 26.5,132C 25.0069,133.368 23.5069,133.535 22,132.5C 21.6667,133.5 21.3333,134.5 21,135.5C 20.6667,132.833 20.3333,130.167 20,127.5C 19.9525,133.279 18.7858,138.612 16.5,143.5C 16.5,138.167 16.5,132.833 16.5,127.5C 17.3171,125.031 17.8171,122.365 18,119.5C 18.3333,120.167 18.6667,120.833 19,121.5C 19.5903,119.046 20.4236,117.379 21.5,116.5C 22.552,116.649 23.552,116.483 24.5,116C 26.8048,112.358 30.1382,110.858 34.5,111.5C 34.3505,110.448 34.5172,109.448 35,108.5C 38.5344,106.478 40.0344,103.478 39.5,99.5C 41.1042,98.713 41.7709,97.3797 41.5,95.5C 42.5,95.5 43.5,95.5 44.5,95.5C 43.9084,98.1272 43.5751,100.794 43.5,103.5 Z"/></g>
<g><path style="opacity:1" fill="#be9f60" d="M 164.5,103.5 C 166.221,110.934 167.888,118.434 169.5,126C 169.415,127.107 169.081,128.107 168.5,129C 159.5,129.667 150.5,129.667 141.5,129C 140.833,128.667 140.167,128.333 139.5,128C 139.658,124.712 139.658,121.212 139.5,117.5C 141.011,119.476 141.844,121.809 142,124.5C 143.049,125.517 144.216,125.684 145.5,125C 148.016,122.68 149.016,120.013 148.5,117C 153.409,116.414 157.742,114.581 161.5,111.5C 162.321,108.553 162.821,105.553 163,102.5C 163.383,103.056 163.883,103.389 164.5,103.5 Z"/></g>
<g><path style="opacity:1" fill="#d9c580" d="M 546.5,89.5 C 548.265,90.4614 550.265,90.7947 552.5,90.5C 552.211,94.1064 552.544,97.6064 553.5,101C 556.838,101.5 558.505,100 558.5,96.5C 559.833,96.5 561.167,96.5 562.5,96.5C 563.014,98.5116 563.18,100.512 563,102.5C 558.598,104.881 556.098,108.548 555.5,113.5C 555.5,129.167 555.5,144.833 555.5,160.5C 551.869,160.685 548.202,160.685 544.5,160.5C 543.796,157.296 543.13,154.129 542.5,151C 543.433,134.66 543.433,118.327 542.5,102C 542.594,98.1122 543.094,94.2788 544,90.5C 544.671,89.7476 545.504,89.4142 546.5,89.5 Z"/></g>
<g><path style="opacity:0.878" fill="#a07c4d" d="M 101.5,111.5 C 104.448,111.223 107.281,111.556 110,112.5C 110.498,115.482 110.665,118.482 110.5,121.5C 107.167,121.5 103.833,121.5 100.5,121.5C 100.253,118.061 100.586,114.728 101.5,111.5 Z"/></g>
<g><path style="opacity:1" fill="#cab579" d="M 479.5,78.5 C 487.507,78.3336 495.507,78.5003 503.5,79C 509.592,79.631 514.425,82.4643 518,87.5C 519.341,94.5 519.841,101.5 519.5,108.5C 521.686,111.704 524.019,112.038 526.5,109.5C 526.263,110.791 526.596,111.791 527.5,112.5C 522.81,119.696 516.144,124.196 507.5,126C 503.661,126.459 499.828,126.959 496,127.5C 489.969,126.923 483.802,126.756 477.5,127C 476.64,137.955 476.306,149.122 476.5,160.5C 473.603,160.319 470.77,160.652 468,161.5C 465.854,161.212 464.687,160.545 464.5,159.5C 467.764,158.676 471.098,158.342 474.5,158.5C 474.333,147.495 474.5,136.495 475,125.5C 479.734,122.846 484.9,121.013 490.5,120C 488.608,119.027 486.608,118.36 484.5,118C 486.833,117.667 489.167,117.333 491.5,117C 486.146,116.471 480.813,116.638 475.5,117.5C 475.825,109.648 475.492,101.982 474.5,94.5C 474.334,89.4889 474.501,84.4889 475,79.5C 476.356,78.6198 477.856,78.2865 479.5,78.5 Z M 476.5,80.5 C 484.507,80.3336 492.507,80.5003 500.5,81C 516.205,83.6993 521.371,92.5326 516,107.5C 513.441,110.531 510.274,112.698 506.5,114C 496.557,115.365 486.557,115.865 476.5,115.5C 476.5,103.833 476.5,92.1667 476.5,80.5 Z"/></g>
<g><path style="opacity:0.997" fill="#ad8b4d" d="M 348.5,114.5 C 346.861,115.473 345.527,116.806 344.5,118.5C 343.295,119.672 343.295,121.005 344.5,122.5C 347.651,127.117 351.484,131.117 356,134.5C 356.513,137.027 357.68,139.193 359.5,141C 357.457,149.718 354.457,150.218 350.5,142.5C 352.088,138.087 350.755,136.754 346.5,138.5C 346.649,137.448 346.483,136.448 346,135.5C 343.73,134.273 341.897,132.606 340.5,130.5C 339.614,129.675 339.281,128.675 339.5,127.5C 338.5,127.5 337.5,127.5 336.5,127.5C 335.527,126.016 334.193,125.516 332.5,126C 328.276,128.078 324.943,130.911 322.5,134.5C 321.5,134.5 320.5,134.5 319.5,134.5C 319.5,133.5 319.5,132.5 319.5,131.5C 325.473,128.389 330.806,125.223 335.5,122C 336.531,119.467 336.531,116.633 335.5,113.5C 338.382,111.137 341.549,109.137 345,107.5C 345.494,105.866 345.66,104.199 345.5,102.5C 347.745,100.639 350.412,99.6386 353.5,99.5C 354.416,96.1852 356.416,93.6852 359.5,92C 363.167,91.3333 366.833,91.3333 370.5,92C 368.299,93.0432 365.966,93.8765 363.5,94.5C 362.811,96.444 362.311,98.444 362,100.5C 358.711,102.771 355.378,105.105 352,107.5C 351.05,110.284 349.217,112.284 346.5,113.5C 346.957,114.298 347.624,114.631 348.5,114.5 Z"/></g>
<g><path style="opacity:1" fill="#c1a465" d="M 420.5,170.5 C 414.567,182.009 404.9,187.342 391.5,186.5C 391.5,183.833 391.5,181.167 391.5,178.5C 396.179,178.666 400.845,178.499 405.5,178C 406.116,175.821 407.283,173.988 409,172.5C 409.74,171.251 409.573,170.251 408.5,169.5C 412.399,164.467 412.399,159.467 408.5,154.5C 410.044,154.703 411.378,155.37 412.5,156.5C 413.321,159.447 413.821,162.447 414,165.5C 414.923,164.241 415.757,162.908 416.5,161.5C 416.833,162.5 417.167,163.5 417.5,164.5C 415.871,168.085 414.538,171.752 413.5,175.5C 414.675,175.719 415.675,175.386 416.5,174.5C 420.748,166.423 424.415,158.089 427.5,149.5C 425.628,147.245 424.461,144.578 424,141.5C 422.607,144.125 421.441,144.125 420.5,141.5C 426.421,124.746 432.754,108.079 439.5,91.5C 441.707,89.9713 444.207,89.3047 447,89.5C 448.833,89.6667 450.667,89.8333 452.5,90C 453.022,90.5613 453.355,91.228 453.5,92C 442.586,118.313 431.586,144.48 420.5,170.5 Z"/></g>
<g><path style="opacity:0.976" fill="#c5b179" d="M 129.5,98.5 C 133.992,101.647 137.325,105.647 139.5,110.5C 138.595,111.964 138.595,113.298 139.5,114.5C 138.834,119.017 138.167,123.683 137.5,128.5C 133.235,129.439 128.902,129.772 124.5,129.5C 120.684,128.846 119.017,126.513 119.5,122.5C 120.652,123.625 121.652,123.625 122.5,122.5C 123.167,122.5 123.833,122.5 124.5,122.5C 125.167,122.5 125.5,122.167 125.5,121.5C 126.708,122.234 128.041,122.567 129.5,122.5C 130.189,123.774 131.023,123.774 132,122.5C 132.76,118.775 132.593,115.108 131.5,111.5C 127.893,110.511 124.226,110.177 120.5,110.5C 120.611,109.883 120.944,109.383 121.5,109C 125.826,108.774 129.993,107.941 134,106.5C 132.831,103.785 131.331,101.118 129.5,98.5 Z"/></g>
<g><path style="opacity:1" fill="#ba9a60" d="M 61.5,122.5 C 62.4345,123.568 62.7678,124.901 62.5,126.5C 66.2396,126.759 69.9062,126.426 73.5,125.5C 74.2621,124.372 74.9288,123.205 75.5,122C 80.8854,122.313 82.8854,119.813 81.5,114.5C 83.712,115.047 85.3787,114.047 86.5,111.5C 87.397,110.402 88.2303,110.402 89,111.5C 89.8072,117.416 89.6406,123.25 88.5,129C 79.1667,129.667 69.8333,129.667 60.5,129C 60.0426,128.586 59.7093,128.086 59.5,127.5C 60.0276,125.664 60.6942,123.997 61.5,122.5 Z"/></g>
<g><path style="opacity:1" fill="#dac68c" d="M 212.5,111.5 C 212.828,116.875 212.495,122.208 211.5,127.5C 210.914,127.709 210.414,128.043 210,128.5C 208.873,133.326 208.706,138.326 209.5,143.5C 207.801,143.34 206.134,143.506 204.5,144C 203.167,145 203.167,146 204.5,147C 203.149,148.617 201.482,149.784 199.5,150.5C 198.897,151.635 198.564,152.635 198.5,153.5C 197.749,152.624 197.249,151.624 197,150.5C 196.5,144.175 196.334,137.842 196.5,131.5C 197.323,128.023 197.823,124.356 198,120.5C 202.334,119.556 205.168,116.89 206.5,112.5C 207.192,113.025 207.692,113.692 208,114.5C 208.561,112.275 209.561,110.275 211,108.5C 211.232,109.737 211.732,110.737 212.5,111.5 Z"/></g>
<g><path style="opacity:1" fill="#f0e7a1" d="M 633.5,88.5 C 670.143,87.3035 684.976,104.637 678,140.5C 671.76,153.206 661.594,160.373 647.5,162C 641.257,162.813 635.257,162.313 629.5,160.5C 636.508,160.666 643.508,160.5 650.5,160C 651.536,156.712 653.536,155.879 656.5,157.5C 658.059,156.553 659.726,155.887 661.5,155.5C 663.678,154.484 665.345,152.984 666.5,151C 665.115,149.403 664.449,147.57 664.5,145.5C 660.307,147.425 655.974,149.092 651.5,150.5C 661.778,145.871 667.445,137.871 668.5,126.5C 667.86,112.881 661.193,103.881 648.5,99.5C 652.591,100.085 656.591,101.085 660.5,102.5C 662.931,103.36 664.264,105.027 664.5,107.5C 666.714,107.709 668.381,106.876 669.5,105C 666.854,102.363 665.188,99.1959 664.5,95.5C 659.43,93.8529 654.43,92.0196 649.5,90C 644.446,89.219 639.446,89.3857 634.5,90.5C 633.702,90.0431 633.369,89.3764 633.5,88.5 Z"/></g>
<g><path style="opacity:1" fill="#d2bd86" d="M 43.5,103.5 C 40.7825,109.314 38.4492,115.314 36.5,121.5C 35.8826,121.611 35.3826,121.944 35,122.5C 33.4228,128.788 32.0895,135.121 31,141.5C 27.6667,144.167 24.3333,146.833 21,149.5C 22.2533,153.671 21.2533,154.338 18,151.5C 17.6174,152.056 17.1174,152.389 16.5,152.5C 16.5,149.5 16.5,146.5 16.5,143.5C 18.7858,138.612 19.9525,133.279 20,127.5C 20.3333,130.167 20.6667,132.833 21,135.5C 21.3333,134.5 21.6667,133.5 22,132.5C 23.5069,133.535 25.0069,133.368 26.5,132C 26.1667,131.667 25.8333,131.333 25.5,131C 27.3939,129.899 28.0606,128.566 27.5,127C 29.4875,125.681 30.6541,123.848 31,121.5C 31.5,122 32,122.5 32.5,123C 31.4829,124.049 31.3162,125.216 32,126.5C 34.3028,119.181 37.3028,111.847 41,104.5C 41.6708,103.748 42.5041,103.414 43.5,103.5 Z"/></g>
<g><path style="opacity:1" fill="#9f763f" d="M 54.5,131.5 C 64.1839,131.868 73.8506,132.534 83.5,133.5C 83.0233,134.478 82.3567,135.311 81.5,136C 72.5075,136.7 63.5075,137.2 54.5,137.5C 53.1667,135.5 53.1667,133.5 54.5,131.5 Z"/></g>
<g><path style="opacity:1" fill="#b19765" d="M 54.5,131.5 C 78.6609,130.502 102.994,130.169 127.5,130.5C 126.737,131.268 125.737,131.768 124.5,132C 125.833,133 125.833,134 124.5,135C 122.744,135.202 121.078,135.702 119.5,136.5C 127.323,137.167 134.99,137.833 142.5,138.5C 112.995,138.831 83.6619,138.498 54.5,137.5C 63.5075,137.2 72.5075,136.7 81.5,136C 82.3567,135.311 83.0233,134.478 83.5,133.5C 73.8506,132.534 64.1839,131.868 54.5,131.5 Z"/></g>
<g><path style="opacity:1" fill="#d5c38a" d="M 127.5,130.5 C 143.342,130.17 159.009,130.504 174.5,131.5C 163.495,131.333 152.495,131.5 141.5,132C 140.495,133.507 139.162,134.673 137.5,135.5C 145.479,136.332 153.479,136.832 161.5,137C 162.416,137.278 163.082,137.778 163.5,138.5C 156.5,138.5 149.5,138.5 142.5,138.5C 134.99,137.833 127.323,137.167 119.5,136.5C 121.078,135.702 122.744,135.202 124.5,135C 125.833,134 125.833,133 124.5,132C 125.737,131.768 126.737,131.268 127.5,130.5 Z"/></g>
<g><path style="opacity:1" fill="#ecdf99" d="M 174.5,131.5 C 175.468,133.607 175.802,135.941 175.5,138.5C 171.5,138.5 167.5,138.5 163.5,138.5C 163.082,137.778 162.416,137.278 161.5,137C 153.479,136.832 145.479,136.332 137.5,135.5C 139.162,134.673 140.495,133.507 141.5,132C 152.495,131.5 163.495,131.333 174.5,131.5 Z"/></g>
<g><path style="opacity:1" fill="#bb9d5f" d="M 406.5,123.5 C 410.296,131.092 414.129,138.759 418,146.5C 418.791,145.255 419.291,143.922 419.5,142.5C 420.738,144.214 421.405,146.214 421.5,148.5C 418.843,148.838 416.51,148.171 414.5,146.5C 413.17,151.694 411.67,151.694 410,146.5C 409.76,148.852 408.927,150.852 407.5,152.5C 401.593,141.018 395.926,129.351 390.5,117.5C 390.249,114.502 391.249,112.002 393.5,110C 391.932,107.369 392.432,105.203 395,103.5C 396.66,107.517 398.494,111.35 400.5,115C 400.561,117.261 399.894,119.261 398.5,121C 399,121.5 399.5,122 400,122.5C 400.29,120.956 400.956,119.623 402,118.5C 403.067,120.692 404.567,122.358 406.5,123.5 Z"/></g>
<g><path style="opacity:1" fill="#cfbb89" d="M 213.5,83.5 C 213.5,108.833 213.5,134.167 213.5,159.5C 213.167,159.5 212.833,159.5 212.5,159.5C 212.09,154.622 210.924,149.955 209,145.5C 208.202,148.893 207.202,152.226 206,155.5C 205.082,153.368 203.749,152.701 202,153.5C 201.306,157.241 200.139,160.741 198.5,164C 198.833,164.333 199.167,164.667 199.5,165C 195.121,166.71 192.621,169.876 192,174.5C 189.761,175.889 187.928,177.556 186.5,179.5C 194.578,163.032 197.244,145.699 194.5,127.5C 195.674,128.514 196.34,129.847 196.5,131.5C 196.334,137.842 196.5,144.175 197,150.5C 197.249,151.624 197.749,152.624 198.5,153.5C 198.564,152.635 198.897,151.635 199.5,150.5C 201.482,149.784 203.149,148.617 204.5,147C 203.167,146 203.167,145 204.5,144C 206.134,143.506 207.801,143.34 209.5,143.5C 208.706,138.326 208.873,133.326 210,128.5C 210.414,128.043 210.914,127.709 211.5,127.5C 212.495,122.208 212.828,116.875 212.5,111.5C 212.5,106.167 212.5,100.833 212.5,95.5C 212.183,91.2984 212.517,87.2984 213.5,83.5 Z"/></g>
<g><path style="opacity:1" fill="#b2945a" d="M 344.5,118.5 C 354.469,130.646 364.303,142.979 374,155.5C 375.009,157.025 375.509,158.692 375.5,160.5C 370.821,160.666 366.155,160.499 361.5,160C 353.279,149.046 344.946,138.213 336.5,127.5C 337.5,127.5 338.5,127.5 339.5,127.5C 339.281,128.675 339.614,129.675 340.5,130.5C 341.897,132.606 343.73,134.273 346,135.5C 346.483,136.448 346.649,137.448 346.5,138.5C 350.755,136.754 352.088,138.087 350.5,142.5C 354.457,150.218 357.457,149.718 359.5,141C 357.68,139.193 356.513,137.027 356,134.5C 351.484,131.117 347.651,127.117 344.5,122.5C 343.295,121.005 343.295,119.672 344.5,118.5 Z"/></g>
<g><path style="opacity:1" fill="#aa8244" d="M 319.5,131.5 C 319.5,132.5 319.5,133.5 319.5,134.5C 320.5,134.5 321.5,134.5 322.5,134.5C 322.556,142.192 322.556,150.192 322.5,158.5C 319.5,158.5 316.5,158.5 313.5,158.5C 313.168,148.145 313.501,137.812 314.5,127.5C 315.336,129.94 317.003,131.273 319.5,131.5 Z"/></g>
<g><path style="opacity:0.561" fill="#a18356" d="M 73.5,139.5 C 77.8461,139.334 82.1794,139.501 86.5,140C 87.5762,141.726 87.7429,143.559 87,145.5C 83.0454,146.477 78.8787,146.81 74.5,146.5C 72.2395,144.516 71.9061,142.183 73.5,139.5 Z"/></g>
<g><path style="opacity:0.522" fill="#a7865c" d="M 142.5,139.5 C 147.179,139.334 151.845,139.501 156.5,140C 157.576,141.726 157.743,143.559 157,145.5C 152.252,146.635 147.419,146.802 142.5,146C 141.232,143.837 141.232,141.67 142.5,139.5 Z"/></g>
<g><path style="opacity:1" fill="#a37d48" d="M 275.5,120.5 C 276.601,119.402 277.934,119.235 279.5,120C 281.909,120.748 284.075,121.915 286,123.5C 286.95,122.978 287.784,122.311 288.5,121.5C 289.833,123.167 291.167,124.833 292.5,126.5C 293.466,124.604 293.799,122.604 293.5,120.5C 294.481,122.396 295.481,124.396 296.5,126.5C 296.957,127.298 297.624,127.631 298.5,127.5C 301.744,142.842 296.077,153.675 281.5,160C 265.011,164.243 249.011,162.91 233.5,156C 232.158,153.544 232.491,151.378 234.5,149.5C 234.022,146.722 235.022,144.722 237.5,143.5C 250.131,150.912 263.464,152.745 277.5,149C 285.305,145.219 288.138,139.053 286,130.5C 284.609,124.942 281.109,121.609 275.5,120.5 Z"/></g>
<g><path style="opacity:1" fill="#cbaf6b" d="M 474.5,94.5 C 475.492,101.982 475.825,109.648 475.5,117.5C 480.813,116.638 486.146,116.471 491.5,117C 489.167,117.333 486.833,117.667 484.5,118C 486.608,118.36 488.608,119.027 490.5,120C 484.9,121.013 479.734,122.846 475,125.5C 474.5,136.495 474.333,147.495 474.5,158.5C 471.098,158.342 467.764,158.676 464.5,159.5C 463.533,151.586 463.199,143.586 463.5,135.5C 464.173,130.443 465.173,125.443 466.5,120.5C 466.5,122.5 466.5,124.5 466.5,126.5C 468.599,127.231 470.599,127.231 472.5,126.5C 472.789,124.782 472.456,122.948 471.5,121C 471.468,119.029 472.302,117.529 474,116.5C 474.5,109.174 474.666,101.841 474.5,94.5 Z"/></g>
<g><path style="opacity:1" fill="#eade97" d="M 604.5,112.5 C 604.62,121.518 605.12,130.518 606,139.5C 606.667,140.833 607.333,142.167 608,143.5C 610.566,144.242 612.733,145.575 614.5,147.5C 621.249,143.935 620.916,142.602 613.5,143.5C 613.67,142.178 613.337,141.011 612.5,140C 613.448,139.517 614.448,139.351 615.5,139.5C 615.5,138.167 615.5,136.833 615.5,135.5C 623.594,149.199 635.594,154.199 651.5,150.5C 651.389,151.117 651.056,151.617 650.5,152C 646.5,152.333 642.5,152.667 638.5,153C 638.833,153.333 639.167,153.667 639.5,154C 638.552,154.483 637.552,154.649 636.5,154.5C 636.5,155.5 636.5,156.5 636.5,157.5C 633.927,157.852 631.594,157.352 629.5,156C 630.623,154.956 631.956,154.29 633.5,154C 629.534,153.172 625.534,152.672 621.5,152.5C 621.421,153.93 621.754,155.264 622.5,156.5C 625.022,157.303 627.022,158.636 628.5,160.5C 616.852,157.588 608.685,150.588 604,139.5C 602.981,135.036 602.148,130.536 601.5,126C 601.896,121.228 602.896,116.728 604.5,112.5 Z"/></g>
<g><path style="opacity:1" fill="#ba9e65" d="M 111.5,139.5 C 120.506,139.334 129.506,139.5 138.5,140C 140.278,142.135 140.945,144.635 140.5,147.5C 141.5,147.5 142.5,147.5 143.5,147.5C 143.827,157.015 143.494,166.348 142.5,175.5C 142.831,167.472 142.498,159.472 141.5,151.5C 139.783,150.332 139.116,148.665 139.5,146.5C 138.5,146.5 137.5,146.5 136.5,146.5C 136.33,147.822 136.663,148.989 137.5,150C 135.193,150.354 134.859,151.354 136.5,153C 135.287,154.63 134.454,156.464 134,158.5C 133.026,156.122 132.359,156.456 132,159.5C 131.667,158.167 131.333,156.833 131,155.5C 130.195,164.911 130.362,174.244 131.5,183.5C 130.25,183.423 129.417,182.756 129,181.5C 128.667,170.5 128.333,159.5 128,148.5C 119,147.167 110,147.167 101,148.5C 100.5,160.162 100.333,171.829 100.5,183.5C 97.1501,183.665 93.8168,183.498 90.5,183C 90.1408,180.37 89.1408,178.203 87.5,176.5C 88.209,175.596 89.209,175.263 90.5,175.5C 91.6657,182.589 93.1657,182.922 95,176.5C 96,177.5 97,178.5 98,179.5C 98.6577,168.504 99.1577,157.504 99.5,146.5C 106.841,146.666 114.174,146.5 121.5,146C 122.416,145.626 123.25,145.126 124,144.5C 126,145.167 128,145.833 130,146.5C 130.456,145.256 129.956,144.423 128.5,144C 128.833,143.667 129.167,143.333 129.5,143C 123.167,142.667 116.833,142.333 110.5,142C 111.252,141.329 111.586,140.496 111.5,139.5 Z"/></g>
<g><path style="opacity:1" fill="#c0a05b" d="M 419.5,142.5 C 419.5,141.833 419.833,141.5 420.5,141.5C 421.441,144.125 422.607,144.125 424,141.5C 424.461,144.578 425.628,147.245 427.5,149.5C 424.415,158.089 420.748,166.423 416.5,174.5C 415.675,175.386 414.675,175.719 413.5,175.5C 414.538,171.752 415.871,168.085 417.5,164.5C 417.167,163.5 416.833,162.5 416.5,161.5C 415.757,162.908 414.923,164.241 414,165.5C 413.821,162.447 413.321,159.447 412.5,156.5C 411.378,155.37 410.044,154.703 408.5,154.5C 408.167,153.833 407.833,153.167 407.5,152.5C 408.927,150.852 409.76,148.852 410,146.5C 411.67,151.694 413.17,151.694 414.5,146.5C 416.51,148.171 418.843,148.838 421.5,148.5C 421.405,146.214 420.738,144.214 419.5,142.5 Z"/></g>
<g><path style="opacity:1" fill="#dcc990" d="M 36.5,121.5 C 34.3536,132.818 34.0202,144.151 35.5,155.5C 33.631,157.635 32.9644,160.302 33.5,163.5C 30.0388,163.146 27.5388,164.479 26,167.5C 25.6667,166.833 25.3333,166.167 25,165.5C 23.883,166.949 23.2163,168.616 23,170.5C 22.586,170.043 22.086,169.709 21.5,169.5C 20.8333,172.167 20.1667,174.833 19.5,177.5C 17.7118,176.717 16.7118,175.384 16.5,173.5C 16.5,166.5 16.5,159.5 16.5,152.5C 17.1174,152.389 17.6174,152.056 18,151.5C 21.2533,154.338 22.2533,153.671 21,149.5C 24.3333,146.833 27.6667,144.167 31,141.5C 32.0895,135.121 33.4228,128.788 35,122.5C 35.3826,121.944 35.8826,121.611 36.5,121.5 Z"/></g>
<g><path style="opacity:1" fill="#9e7236" d="M 234.5,149.5 C 235.291,147.557 236.791,146.557 239,146.5C 241.83,148.461 244.996,149.795 248.5,150.5C 247.624,151.251 246.624,151.751 245.5,152C 247.168,153.687 249.001,153.854 251,152.5C 257.476,153.234 263.976,153.734 270.5,154C 273.686,156.324 275.352,155.491 275.5,151.5C 277.826,150.849 280.159,150.182 282.5,149.5C 286.317,151.097 289.317,150.097 291.5,146.5C 291.833,147.167 292.167,147.833 292.5,148.5C 291.441,151.068 289.774,153.235 287.5,155C 273.346,161.131 258.679,162.131 243.5,158C 241.406,157.138 240.406,155.972 240.5,154.5C 238.584,155.248 236.584,155.248 234.5,154.5C 234.5,152.833 234.5,151.167 234.5,149.5 Z"/></g>
<g><path style="opacity:1" fill="#efe494" d="M 629.5,160.5 C 629.167,160.5 628.833,160.5 628.5,160.5C 627.022,158.636 625.022,157.303 622.5,156.5C 621.754,155.264 621.421,153.93 621.5,152.5C 625.534,152.672 629.534,153.172 633.5,154C 631.956,154.29 630.623,154.956 629.5,156C 631.594,157.352 633.927,157.852 636.5,157.5C 636.5,156.5 636.5,155.5 636.5,154.5C 637.552,154.649 638.552,154.483 639.5,154C 639.167,153.667 638.833,153.333 638.5,153C 642.5,152.667 646.5,152.333 650.5,152C 651.056,151.617 651.389,151.117 651.5,150.5C 655.974,149.092 660.307,147.425 664.5,145.5C 664.449,147.57 665.115,149.403 666.5,151C 665.345,152.984 663.678,154.484 661.5,155.5C 659.726,155.887 658.059,156.553 656.5,157.5C 653.536,155.879 651.536,156.712 650.5,160C 643.508,160.5 636.508,160.666 629.5,160.5 Z"/></g>
<g><path style="opacity:1" fill="#a57f45" d="M 111.5,139.5 C 111.586,140.496 111.252,141.329 110.5,142C 116.833,142.333 123.167,142.667 129.5,143C 129.167,143.333 128.833,143.667 128.5,144C 129.956,144.423 130.456,145.256 130,146.5C 128,145.833 126,145.167 124,144.5C 123.25,145.126 122.416,145.626 121.5,146C 114.174,146.5 106.841,146.666 99.5,146.5C 99.1577,157.504 98.6577,168.504 98,179.5C 97,178.5 96,177.5 95,176.5C 93.1657,182.922 91.6657,182.589 90.5,175.5C 89.209,175.263 88.209,175.596 87.5,176.5C 86.7784,176.082 86.2784,175.416 86,174.5C 85.3333,165.833 85.3333,157.167 86,148.5C 88.9823,146.804 90.3156,144.137 90,140.5C 97.0787,139.52 104.245,139.187 111.5,139.5 Z"/></g>
<g><path style="opacity:1" fill="#a57e41" d="M 73.5,175.5 C 70.8285,177.347 69.8285,180.014 70.5,183.5C 68.1667,183.5 65.8333,183.5 63.5,183.5C 62.828,182.733 61.9947,182.066 61,181.5C 60.3333,168.167 60.3333,154.833 61,141.5C 67.3925,139.212 70.3925,141.545 70,148.5C 71.0113,149.337 72.1779,149.67 73.5,149.5C 73.5,158.167 73.5,166.833 73.5,175.5 Z"/></g>
<g><path style="opacity:1" fill="#a1783c" d="M 126.5,150.5 C 124.43,150.583 124.097,151.583 125.5,153.5C 124.822,156.544 123.989,159.544 123,162.5C 118.735,164.93 114.901,167.93 111.5,171.5C 109.906,174.985 109.24,178.652 109.5,182.5C 107.265,182.205 105.265,182.539 103.5,183.5C 102.505,172.346 102.172,161.012 102.5,149.5C 110.684,149.174 118.684,149.508 126.5,150.5 Z"/></g>
<g><path style="opacity:1" fill="#aa854a" d="M 168.5,183.5 C 168.167,183.5 167.833,183.5 167.5,183.5C 164.813,183.664 162.146,183.497 159.5,183C 158.59,178.581 156.923,174.581 154.5,171C 155.524,164.166 155.524,157.166 154.5,150C 155.308,148.294 156.641,147.461 158.5,147.5C 158.232,144.881 158.565,142.381 159.5,140C 163.091,139.211 166.591,139.378 170,140.5C 170.667,154.5 170.667,168.5 170,182.5C 169.617,183.056 169.117,183.389 168.5,183.5 Z"/></g>
<g><path style="opacity:0.966" fill="#b08b4e" d="M 126.5,150.5 C 127.659,160.992 127.825,171.659 127,182.5C 119.253,183.482 111.42,183.815 103.5,183.5C 105.265,182.539 107.265,182.205 109.5,182.5C 109.24,178.652 109.906,174.985 111.5,171.5C 114.901,167.93 118.735,164.93 123,162.5C 123.989,159.544 124.822,156.544 125.5,153.5C 124.097,151.583 124.43,150.583 126.5,150.5 Z"/></g>
<g><path style="opacity:1" fill="#d0b872" d="M 142.5,175.5 C 141.222,176.749 140.222,178.249 139.5,180C 140.833,181 140.833,182 139.5,183C 136.854,183.497 134.187,183.664 131.5,183.5C 130.362,174.244 130.195,164.911 131,155.5C 131.333,156.833 131.667,158.167 132,159.5C 132.359,156.456 133.026,156.122 134,158.5C 134.454,156.464 135.287,154.63 136.5,153C 134.859,151.354 135.193,150.354 137.5,150C 136.663,148.989 136.33,147.822 136.5,146.5C 137.5,146.5 138.5,146.5 139.5,146.5C 139.116,148.665 139.783,150.332 141.5,151.5C 142.498,159.472 142.831,167.472 142.5,175.5 Z"/></g>
<g><path style="opacity:0.999" fill="#c8af7a" d="M 212.5,159.5 C 212.666,164.844 212.499,170.177 212,175.5C 211.177,168.866 210.677,168.866 210.5,175.5C 206.833,176.833 203.167,178.167 199.5,179.5C 199.5,178.5 199.5,177.5 199.5,176.5C 196.685,177.126 194.185,178.46 192,180.5C 191.586,184.351 190.752,188.017 189.5,191.5C 185.735,194.148 183.068,197.314 181.5,201C 179.423,201.192 177.423,201.692 175.5,202.5C 174.91,203.799 173.91,204.632 172.5,205C 173.604,206.131 173.271,206.965 171.5,207.5C 170.877,209.966 170.043,212.299 169,214.5C 167.271,214.026 166.105,213.026 165.5,211.5C 166.189,210.226 167.023,210.226 168,211.5C 169.846,207.145 171.679,202.812 173.5,198.5C 174.552,198.649 175.552,198.483 176.5,198C 178.826,194.654 181.326,191.487 184,188.5C 184.494,186.866 184.66,185.199 184.5,183.5C 184.66,181.847 185.326,180.514 186.5,179.5C 187.928,177.556 189.761,175.889 192,174.5C 192.621,169.876 195.121,166.71 199.5,165C 199.167,164.667 198.833,164.333 198.5,164C 200.139,160.741 201.306,157.241 202,153.5C 203.749,152.701 205.082,153.368 206,155.5C 207.202,152.226 208.202,148.893 209,145.5C 210.924,149.955 212.09,154.622 212.5,159.5 Z"/></g>
<g><path style="opacity:0.945" fill="#9d7b4a" d="M 76.5,147.5 C 78.8333,147.5 81.1667,147.5 83.5,147.5C 83.6665,156.839 83.4998,166.173 83,175.5C 80.9592,176.423 78.7925,176.756 76.5,176.5C 76.5,166.833 76.5,157.167 76.5,147.5 Z"/></g>
<g><path style="opacity:0.22" fill="#a1845f" d="M 73.5,175.5 C 73.5,166.833 73.5,158.167 73.5,149.5C 72.1779,149.67 71.0113,149.337 70,148.5C 70.3925,141.545 67.3925,139.212 61,141.5C 60.3333,154.833 60.3333,168.167 61,181.5C 61.9947,182.066 62.828,182.733 63.5,183.5C 62.1779,183.67 61.0113,183.337 60,182.5C 59.1771,168.258 59.3438,154.092 60.5,140C 63.5,139.333 66.5,139.333 69.5,140C 70.2638,142.069 70.7638,144.236 71,146.5C 72,147.167 73,147.833 74,148.5C 74.824,157.676 74.6573,166.676 73.5,175.5 Z"/></g>
<g><path style="opacity:0.786" fill="#a47d4b" d="M 146.5,147.5 C 148.833,147.5 151.167,147.5 153.5,147.5C 153.666,156.839 153.5,166.173 153,175.5C 150.667,176.833 148.333,176.833 146,175.5C 145.195,166.089 145.362,156.756 146.5,147.5 Z"/></g>
<g><path style="opacity:1" fill="#e4d69d" d="M 35.5,155.5 C 36.185,160.239 37.185,164.906 38.5,169.5C 39.2215,175.36 39.8882,181.026 40.5,186.5C 39.4254,189.239 37.4254,190.905 34.5,191.5C 34.5614,189.408 35.5614,187.908 37.5,187C 35.8659,186.506 34.1992,186.34 32.5,186.5C 32.6567,185.127 32.49,183.793 32,182.5C 29.7891,182.623 27.6225,182.623 25.5,182.5C 25.1667,183.167 24.8333,183.833 24.5,184.5C 28.1397,189.302 28.4731,194.302 25.5,199.5C 23.5,199.5 21.5,199.5 19.5,199.5C 19.5,202.167 19.5,204.833 19.5,207.5C 19.5,209.5 19.5,211.5 19.5,213.5C 17.2031,209.237 16.0365,204.571 16,199.5C 15.1764,190.657 15.3431,181.99 16.5,173.5C 16.7118,175.384 17.7118,176.717 19.5,177.5C 20.1667,174.833 20.8333,172.167 21.5,169.5C 22.086,169.709 22.586,170.043 23,170.5C 23.2163,168.616 23.883,166.949 25,165.5C 25.3333,166.167 25.6667,166.833 26,167.5C 27.5388,164.479 30.0388,163.146 33.5,163.5C 32.9644,160.302 33.631,157.635 35.5,155.5 Z"/></g>
<g><path style="opacity:0.757" fill="#9f7844" d="M 72.5,177.5 C 77.5,177.5 82.5,177.5 87.5,177.5C 87.5,179.5 87.5,181.5 87.5,183.5C 82.8215,183.666 78.1548,183.499 73.5,183C 72.5939,181.301 72.2606,179.467 72.5,177.5 Z"/></g>
<g><path style="opacity:1" fill="#a07946" d="M 142.5,177.5 C 147.179,177.334 151.845,177.501 156.5,178C 157.554,179.388 157.72,180.888 157,182.5C 152.252,183.635 147.419,183.802 142.5,183C 141.248,181.172 141.248,179.339 142.5,177.5 Z"/></g>
<g><path style="opacity:1" fill="#c4a97a" d="M 212.5,159.5 C 212.833,159.5 213.167,159.5 213.5,159.5C 213.5,174.5 213.5,189.5 213.5,204.5C 212.946,198.359 211.946,192.192 210.5,186C 207.167,185.333 203.833,185.333 200.5,186C 197.307,187.026 195.974,189.192 196.5,192.5C 194.418,192.528 192.584,191.861 191,190.5C 190.617,191.056 190.117,191.389 189.5,191.5C 190.752,188.017 191.586,184.351 192,180.5C 194.185,178.46 196.685,177.126 199.5,176.5C 199.5,177.5 199.5,178.5 199.5,179.5C 203.167,178.167 206.833,176.833 210.5,175.5C 210.677,168.866 211.177,168.866 212,175.5C 212.499,170.177 212.666,164.844 212.5,159.5 Z"/></g>
<g><path style="opacity:0.471" fill="#b8a376" d="M 408.5,169.5 C 409.573,170.251 409.74,171.251 409,172.5C 407.283,173.988 406.116,175.821 405.5,178C 400.845,178.499 396.179,178.666 391.5,178.5C 391.5,181.167 391.5,183.833 391.5,186.5C 404.9,187.342 414.567,182.009 420.5,170.5C 418.835,178.999 413.835,184.499 405.5,187C 400.572,188.418 395.572,188.751 390.5,188C 390,187.5 389.5,187 389,186.5C 388.908,183.453 389.408,180.453 390.5,177.5C 394.459,176.673 398.459,176.173 402.5,176C 405.409,174.594 407.409,172.428 408.5,169.5 Z"/></g>
<g><path style="opacity:1" fill="#ebdc95" d="M 167.5,183.5 C 167.833,183.5 168.167,183.5 168.5,183.5C 170.556,184.216 172.723,184.883 175,185.5C 175.957,188.379 175.457,190.879 173.5,193C 165.001,192.416 156.334,192.583 147.5,193.5C 143.399,192.785 139.233,191.785 135,190.5C 133.105,192.182 130.938,192.682 128.5,192C 128.056,190.467 127.723,188.967 127.5,187.5C 129.392,186.527 131.392,185.86 133.5,185.5C 142.05,187.041 150.383,186.708 158.5,184.5C 161.713,184.81 164.713,184.477 167.5,183.5 Z"/></g>
<g><path style="opacity:0.943" fill="#cbb579" d="M 119.5,184.5 C 132.5,184.5 145.5,184.5 158.5,184.5C 150.383,186.708 142.05,187.041 133.5,185.5C 131.392,185.86 129.392,186.527 127.5,187.5C 127.723,188.967 128.056,190.467 128.5,192C 130.938,192.682 133.105,192.182 135,190.5C 139.233,191.785 143.399,192.785 147.5,193.5C 130.159,192.469 112.826,192.469 95.5,193.5C 97.1112,191.905 99.1112,190.739 101.5,190C 104.817,189.502 108.15,189.335 111.5,189.5C 111.5,188.5 111.5,187.5 111.5,186.5C 114.698,187.036 117.365,186.369 119.5,184.5 Z"/></g>
<g><path style="opacity:1" fill="#f4ebab" d="M 52.5,195.5 C 50.9749,197.036 48.9749,198.036 46.5,198.5C 45.6369,202.406 43.3036,204.906 39.5,206C 37.7068,208.795 35.5402,211.295 33,213.5C 32.3086,211.109 31.3086,211.109 30,213.5C 29.2904,212.027 28.1238,211.36 26.5,211.5C 27.2107,214.864 26.044,217.197 23,218.5C 22.7805,216.027 21.6138,214.36 19.5,213.5C 19.5,211.5 19.5,209.5 19.5,207.5C 20.5072,208.828 21.8405,209.828 23.5,210.5C 26.5063,207.146 29.0063,203.48 31,199.5C 31.2492,200.624 31.7492,201.624 32.5,202.5C 34.6999,200.747 35.8666,198.414 36,195.5C 39.8794,193.955 43.2127,191.622 46,188.5C 48.3722,190.703 50.5389,193.037 52.5,195.5 Z"/></g>
<g><path style="opacity:0.384" fill="#ad894c" d="M 119.5,184.5 C 117.365,186.369 114.698,187.036 111.5,186.5C 111.5,187.5 111.5,188.5 111.5,189.5C 108.15,189.335 104.817,189.502 101.5,190C 99.1112,190.739 97.1112,191.905 95.5,193.5C 81.8735,192.901 68.2069,192.734 54.5,193C 53.1667,190.333 53.1667,187.667 54.5,185C 76.1641,184.5 97.8308,184.333 119.5,184.5 Z"/></g>
<g><path style="opacity:1" fill="#eee3a6" d="M 38.5,169.5 C 42.4605,178.753 47.4605,187.419 53.5,195.5C 53.1667,195.5 52.8333,195.5 52.5,195.5C 50.5389,193.037 48.3722,190.703 46,188.5C 43.2127,191.622 39.8794,193.955 36,195.5C 35.8666,198.414 34.6999,200.747 32.5,202.5C 31.7492,201.624 31.2492,200.624 31,199.5C 29.0063,203.48 26.5063,207.146 23.5,210.5C 21.8405,209.828 20.5072,208.828 19.5,207.5C 19.5,204.833 19.5,202.167 19.5,199.5C 21.5,199.5 23.5,199.5 25.5,199.5C 28.4731,194.302 28.1397,189.302 24.5,184.5C 24.8333,183.833 25.1667,183.167 25.5,182.5C 27.6225,182.623 29.7891,182.623 32,182.5C 32.49,183.793 32.6567,185.127 32.5,186.5C 34.1992,186.34 35.8659,186.506 37.5,187C 35.5614,187.908 34.5614,189.408 34.5,191.5C 37.4254,190.905 39.4254,189.239 40.5,186.5C 39.8882,181.026 39.2215,175.36 38.5,169.5 Z"/></g>
<g><path style="opacity:1" fill="#f9f1b1" d="M 52.5,195.5 C 52.8333,195.5 53.1667,195.5 53.5,195.5C 59.1295,199.794 64.4628,204.461 69.5,209.5C 66.7942,208.797 64.2942,208.797 62,209.5C 54.429,217.926 46.2624,225.26 37.5,231.5C 39.9255,234.917 43.2589,236.25 47.5,235.5C 47.5,236.5 47.5,237.5 47.5,238.5C 33.7374,235.068 24.4041,226.735 19.5,213.5C 21.6138,214.36 22.7805,216.027 23,218.5C 26.044,217.197 27.2107,214.864 26.5,211.5C 28.1238,211.36 29.2904,212.027 30,213.5C 31.3086,211.109 32.3086,211.109 33,213.5C 35.5402,211.295 37.7068,208.795 39.5,206C 43.3036,204.906 45.6369,202.406 46.5,198.5C 48.9749,198.036 50.9749,197.036 52.5,195.5 Z"/></g>
<g><path style="opacity:0.937" fill="#9d7341" d="M 290.5,199.5 C 301.367,199.211 305.367,204.377 302.5,215C 304.273,217.59 305.273,220.423 305.5,223.5C 302.635,223.945 300.135,223.278 298,221.5C 293,225.5 288,225.5 283,221.5C 280.777,217.612 281.277,214.112 284.5,211C 288.865,209.971 293.199,208.804 297.5,207.5C 293.695,204.537 289.695,204.203 285.5,206.5C 283.429,205.214 283.096,203.547 284.5,201.5C 286.657,200.95 288.657,200.283 290.5,199.5 Z M 290.5,213.5 C 292.833,213.5 295.167,213.5 297.5,213.5C 297.67,214.822 297.337,215.989 296.5,217C 293.649,218.289 290.649,218.789 287.5,218.5C 287.5,217.167 287.5,215.833 287.5,214.5C 288.791,214.737 289.791,214.404 290.5,213.5 Z"/></g>
<g><path style="opacity:1" fill="#b69867" d="M 212.5,205.5 C 212.277,209.162 211.277,212.495 209.5,215.5C 209.665,212.15 209.498,208.817 209,205.5C 207.318,206.865 207.151,208.365 208.5,210C 205.97,211.195 203.97,213.028 202.5,215.5C 198.349,218.077 194.015,220.411 189.5,222.5C 187.353,224.777 185.853,227.11 185,229.5C 184.667,229.167 184.333,228.833 184,228.5C 183.751,229.624 183.251,230.624 182.5,231.5C 181.011,231.533 179.678,232.033 178.5,233C 179.833,233.667 179.833,234.333 178.5,235C 181.742,235.283 182.076,236.117 179.5,237.5C 174.544,238.494 169.544,238.827 164.5,238.5C 164.5,237.5 164.5,236.5 164.5,235.5C 166.199,235.66 167.866,235.494 169.5,235C 168.391,233.187 169.058,232.354 171.5,232.5C 171.872,228.957 173.872,226.79 177.5,226C 178.167,224.667 178.833,223.333 179.5,222C 182.285,221.441 184.618,220.108 186.5,218C 188.713,217.374 190.88,217.541 193,218.5C 199.496,214.824 198.996,213.158 191.5,213.5C 192.164,211.133 193.497,209.133 195.5,207.5C 194.609,206.41 193.609,206.41 192.5,207.5C 189.792,204.835 190.459,203.502 194.5,203.5C 194.281,202.325 194.614,201.325 195.5,200.5C 200.919,202.453 203.252,206.12 202.5,211.5C 204.05,208.442 205.383,205.275 206.5,202C 204.048,200.415 201.715,198.582 199.5,196.5C 198.046,194.333 198.212,192.333 200,190.5C 201.999,192.253 204.165,193.587 206.5,194.5C 206.682,192.409 206.348,190.409 205.5,188.5C 207.003,187.948 208.669,187.948 210.5,188.5C 211.028,194.318 211.695,199.984 212.5,205.5 Z"/></g>
<g><path style="opacity:0.965" fill="#cebb82" d="M 527.5,199.5 C 532.262,199.524 536.928,200.024 541.5,201C 541.957,201.414 542.291,201.914 542.5,202.5C 541.248,204.735 540.748,207.069 541,209.5C 544.967,200.882 551.467,198.049 560.5,201C 562.939,201.774 564.773,203.274 566,205.5C 568.537,219.291 563.037,225.125 549.5,223C 544.527,221.194 541.527,217.694 540.5,212.5C 537.716,210.886 535.882,208.552 535,205.5C 534.667,211.167 534.333,216.833 534,222.5C 532.612,223.554 531.112,223.72 529.5,223C 528.632,217.571 528.632,212.237 529.5,207C 527.377,205.806 525.043,205.14 522.5,205C 521.643,204.311 520.977,203.478 520.5,202.5C 522.621,200.982 524.954,199.982 527.5,199.5 Z M 550.5,205.5 C 560.191,204.428 563.191,208.261 559.5,217C 551.495,220.888 547.661,218.388 548,209.5C 548.662,208.016 549.496,206.683 550.5,205.5 Z"/></g>
<g><path style="opacity:0.998" fill="#a68350" d="M 335.5,199.5 C 339.188,199.921 342.522,200.254 345.5,200.5C 346.33,206.138 346.83,211.804 347,217.5C 347.423,216.044 348.256,215.544 349.5,216C 347.898,217.935 346.731,220.101 346,222.5C 340.615,224.26 338.782,222.593 340.5,217.5C 336.273,216.787 333.606,218.454 332.5,222.5C 330.604,223.466 328.604,223.799 326.5,223.5C 326.146,220.579 327.146,218.246 329.5,216.5C 322.788,207.788 324.788,202.121 335.5,199.5 Z M 333.5,205.5 C 335.833,205.5 338.167,205.5 340.5,205.5C 341.127,211.855 338.46,213.855 332.5,211.5C 331.229,209.194 331.562,207.194 333.5,205.5 Z"/></g>
<g><path style="opacity:0.008" fill="#7f807f" d="M 348.5,206.5 C 347.833,205.167 347.833,205.167 348.5,206.5 Z"/></g>
<g><path style="opacity:0.02" fill="#91906e" d="M 378.5,206.5 C 379.552,206.351 380.552,206.517 381.5,207C 380.251,207.74 379.251,207.573 378.5,206.5 Z"/></g>
<g><path style="opacity:1" fill="#ba9c61" d="M 448.5,199.5 C 457.507,199.988 460.84,204.488 458.5,213C 452.833,213.333 447.167,213.667 441.5,214C 442.257,215.512 443.257,216.846 444.5,218C 448.954,218.271 453.287,218.437 457.5,218.5C 458.859,220.306 458.525,221.806 456.5,223C 448.845,225.361 442.345,223.527 437,217.5C 434.617,207.404 438.45,201.404 448.5,199.5 Z M 444.5,205.5 C 447.187,205.336 449.854,205.503 452.5,206C 453.337,207.011 453.67,208.178 453.5,209.5C 449.692,209.837 446.026,209.337 442.5,208C 443.381,207.292 444.047,206.458 444.5,205.5 Z"/></g>
<g><path style="opacity:1" fill="#b5965c" d="M 410.5,199.5 C 413.099,201.386 414.099,204.052 413.5,207.5C 417.514,207.334 421.514,207.501 425.5,208C 427.317,209.8 428.484,211.966 429,214.5C 429.796,210.245 429.629,206.079 428.5,202C 430.237,199.713 432.57,199.213 435.5,200.5C 434.807,206.461 434.807,212.294 435.5,218C 435,219.5 434.5,221 434,222.5C 432.951,223.517 431.784,223.684 430.5,223C 429.751,221.266 429.251,219.433 429,217.5C 426.111,222.363 421.778,224.363 416,223.5C 413.576,223.47 411.243,223.137 409,222.5C 407.922,214.565 408.422,206.898 410.5,199.5 Z M 414.5,211.5 C 418.034,211.032 421.034,212.032 423.5,214.5C 421.572,218.169 418.572,219.336 414.5,218C 413.232,215.837 413.232,213.67 414.5,211.5 Z"/></g>
<g><path style="opacity:0.592" fill="#c2a96f" d="M 475.5,199.5 C 481.591,200.434 487.591,200.768 493.5,200.5C 494.665,207.811 494.831,215.144 494,222.5C 492.951,223.517 491.784,223.684 490.5,223C 489.525,217.259 489.192,211.425 489.5,205.5C 485.833,205.5 482.167,205.5 478.5,205.5C 478.5,211.5 478.5,217.5 478.5,223.5C 476.856,223.714 475.356,223.38 474,222.5C 472.922,214.565 473.422,206.898 475.5,199.5 Z"/></g>
<g><path style="opacity:1" fill="#f1e8a8" d="M 69.5,209.5 C 71.2785,210.67 72.2785,212.336 72.5,214.5C 69.4017,214.413 69.0684,214.913 71.5,216C 70.1667,216.667 70.1667,217.333 71.5,218C 69.1203,220.354 66.4536,222.354 63.5,224C 64.6405,224.741 64.6405,225.575 63.5,226.5C 60.4951,228.537 57.4951,230.537 54.5,232.5C 55.325,233.386 56.325,233.719 57.5,233.5C 57.4326,234.959 57.7659,236.292 58.5,237.5C 56.1432,237.337 53.8098,237.503 51.5,238C 53.437,238.122 54.7703,238.955 55.5,240.5C 52.6697,240.037 50.003,239.371 47.5,238.5C 47.5,237.5 47.5,236.5 47.5,235.5C 43.2589,236.25 39.9255,234.917 37.5,231.5C 46.2624,225.26 54.429,217.926 62,209.5C 64.2942,208.797 66.7942,208.797 69.5,209.5 Z"/></g>
<g><path style="opacity:0.945" fill="#a9854e" d="M 359.5,205.5 C 359.5,205.833 359.5,206.167 359.5,206.5C 359.5,207.167 359.833,207.5 360.5,207.5C 360.833,207.5 361.167,207.5 361.5,207.5C 361.735,206.903 362.235,206.57 363,206.5C 364.741,208.454 366.908,209.454 369.5,209.5C 369.5,210.5 369.5,211.5 369.5,212.5C 368.5,212.5 367.5,212.5 366.5,212.5C 366.898,218.598 365.565,218.931 362.5,213.5C 359.405,213.626 357.572,215.293 357,218.5C 354.961,220.874 352.628,222.874 350,224.5C 348.978,223.646 348.145,222.646 347.5,221.5C 350.025,217.871 352.358,214.205 354.5,210.5C 354.281,209.062 353.781,207.729 353,206.5C 352.805,208.207 352.805,209.874 353,211.5C 351.992,211.018 350.825,210.852 349.5,211C 347.452,209.774 347.119,208.274 348.5,206.5C 349.372,205.388 349.372,204.054 348.5,202.5C 350.167,199.227 352.5,198.727 355.5,201C 356.733,202.667 358.067,204.167 359.5,205.5 Z"/></g>
<g><path style="opacity:0.782" fill="#a37a48" d="M 306.5,199.5 C 312.378,199.54 318.378,200.04 324.5,201C 325.727,202.587 325.394,203.921 323.5,205C 321.527,205.495 319.527,205.662 317.5,205.5C 317.666,211.176 317.499,216.843 317,222.5C 315.333,223.833 313.667,223.833 312,222.5C 311.501,216.843 311.334,211.176 311.5,205.5C 308.635,205.945 306.135,205.278 304,203.5C 303.333,202.833 303.333,202.167 304,201.5C 304.995,200.934 305.828,200.267 306.5,199.5 Z"/></g>
<g><path style="opacity:0.557" fill="#956734" d="M 275.5,193.5 C 276.583,193.539 277.583,193.873 278.5,194.5C 279.665,203.816 279.832,213.149 279,222.5C 277.333,223.833 275.667,223.833 274,222.5C 273.501,218.514 273.334,214.514 273.5,210.5C 269.116,210.174 264.783,210.508 260.5,211.5C 260.472,214.997 260.306,218.664 260,222.5C 258.542,223.747 257.042,223.747 255.5,222.5C 254.502,213.19 254.168,203.857 254.5,194.5C 256.467,194.261 258.301,194.594 260,195.5C 260.176,198.882 260.676,202.215 261.5,205.5C 262.086,205.709 262.586,206.043 263,206.5C 266.394,205.544 269.894,205.211 273.5,205.5C 273.784,202.223 273.451,199.057 272.5,196C 273.571,195.148 274.571,194.315 275.5,193.5 Z"/></g>
<g><path style="opacity:0.957" fill="#dbcc8c" d="M 594.5,199.5 C 595.583,199.539 596.583,199.873 597.5,200.5C 598.48,203.086 598.813,205.753 598.5,208.5C 600.144,208.714 601.644,208.38 603,207.5C 603.707,205.919 604.54,204.419 605.5,203C 605.167,202.667 604.833,202.333 604.5,202C 606.519,201.55 608.352,200.717 610,199.5C 611.356,200.38 612.856,200.714 614.5,200.5C 614.707,203.745 613.207,205.745 610,206.5C 609.293,208.081 608.46,209.581 607.5,211C 610.96,214.584 612.96,218.584 613.5,223C 611.711,223.52 610.044,223.187 608.5,222C 606.406,219.579 604.74,216.912 603.5,214C 601.866,213.506 600.199,213.34 598.5,213.5C 598.665,216.518 598.498,219.518 598,222.5C 596.667,223.833 595.333,223.833 594,222.5C 593.814,215.586 593.314,208.753 592.5,202C 593.381,201.292 594.047,200.458 594.5,199.5 Z"/></g>
<g><path style="opacity:0.008" fill="#feff7f" d="M 601.5,204.5 C 602.525,204.897 602.692,205.563 602,206.5C 601.536,205.906 601.369,205.239 601.5,204.5 Z"/></g>
<g><path style="opacity:1" fill="#c5ad75" d="M 184.5,183.5 C 184.66,185.199 184.494,186.866 184,188.5C 181.326,191.487 178.826,194.654 176.5,198C 175.552,198.483 174.552,198.649 173.5,198.5C 171.679,202.812 169.846,207.145 168,211.5C 167.023,210.226 166.189,210.226 165.5,211.5C 164.394,212.73 163.394,213.896 162.5,215C 164.406,218.155 166.24,221.322 168,224.5C 168.333,223.833 168.667,223.167 169,222.5C 170.067,223.191 171.234,223.691 172.5,224C 169.548,226.151 166.548,228.318 163.5,230.5C 162.311,231.429 160.978,231.762 159.5,231.5C 159.5,232.833 159.5,234.167 159.5,235.5C 157.011,235.241 155.344,236.241 154.5,238.5C 156.039,239.7 161.039,240.033 169.5,239.5C 146.339,240.498 123.006,240.831 99.5,240.5C 104.633,239.335 109.966,238.668 115.5,238.5C 122.863,238.831 130.197,238.497 137.5,237.5C 135.744,235.809 135.244,233.809 136,231.5C 138.354,231.108 140.854,231.108 143.5,231.5C 143.617,229.516 142.95,227.85 141.5,226.5C 142.275,224.525 143.609,223.691 145.5,224C 149.582,231.358 150.248,231.025 147.5,223C 148.641,222.259 148.641,221.425 147.5,220.5C 150.131,218.995 149.797,218.329 146.5,218.5C 147.833,217.167 149.167,215.833 150.5,214.5C 164.358,206.977 175.691,196.644 184.5,183.5 Z"/></g>
<g><path style="opacity:1" fill="#bca06f" d="M 213.5,204.5 C 213.5,205.167 213.167,205.5 212.5,205.5C 211.695,199.984 211.028,194.318 210.5,188.5C 208.669,187.948 207.003,187.948 205.5,188.5C 206.348,190.409 206.682,192.409 206.5,194.5C 204.165,193.587 201.999,192.253 200,190.5C 198.212,192.333 198.046,194.333 199.5,196.5C 201.715,198.582 204.048,200.415 206.5,202C 205.383,205.275 204.05,208.442 202.5,211.5C 203.252,206.12 200.919,202.453 195.5,200.5C 194.614,201.325 194.281,202.325 194.5,203.5C 190.459,203.502 189.792,204.835 192.5,207.5C 193.609,206.41 194.609,206.41 195.5,207.5C 193.497,209.133 192.164,211.133 191.5,213.5C 198.996,213.158 199.496,214.824 193,218.5C 190.88,217.541 188.713,217.374 186.5,218C 184.618,220.108 182.285,221.441 179.5,222C 178.833,223.333 178.167,224.667 177.5,226C 173.872,226.79 171.872,228.957 171.5,232.5C 169.058,232.354 168.391,233.187 169.5,235C 167.866,235.494 166.199,235.66 164.5,235.5C 164.5,236.5 164.5,237.5 164.5,238.5C 161.167,238.5 157.833,238.5 154.5,238.5C 155.344,236.241 157.011,235.241 159.5,235.5C 159.5,234.167 159.5,232.833 159.5,231.5C 160.978,231.762 162.311,231.429 163.5,230.5C 166.548,228.318 169.548,226.151 172.5,224C 171.234,223.691 170.067,223.191 169,222.5C 168.667,223.167 168.333,223.833 168,224.5C 166.24,221.322 164.406,218.155 162.5,215C 163.394,213.896 164.394,212.73 165.5,211.5C 166.105,213.026 167.271,214.026 169,214.5C 170.043,212.299 170.877,209.966 171.5,207.5C 173.271,206.965 173.604,206.131 172.5,205C 173.91,204.632 174.91,203.799 175.5,202.5C 177.423,201.692 179.423,201.192 181.5,201C 183.068,197.314 185.735,194.148 189.5,191.5C 190.117,191.389 190.617,191.056 191,190.5C 192.584,191.861 194.418,192.528 196.5,192.5C 195.974,189.192 197.307,187.026 200.5,186C 203.833,185.333 207.167,185.333 210.5,186C 211.946,192.192 212.946,198.359 213.5,204.5 Z"/></g>
<g><path style="opacity:0.818" fill="#b1915b" d="M 382.5,204.5 C 383.833,203.167 383.833,201.833 382.5,200.5C 382.47,199.503 382.97,198.836 384,198.5C 385.559,199.029 387.059,199.696 388.5,200.5C 389.259,203.157 389.926,205.823 390.5,208.5C 398.464,211.539 401.464,208.872 399.5,200.5C 401.5,200.5 403.5,200.5 405.5,200.5C 405.666,207.841 405.5,215.174 405,222.5C 403.333,223.833 401.667,223.833 400,222.5C 399.503,219.854 399.336,217.187 399.5,214.5C 396.264,214.522 392.93,214.189 389.5,213.5C 389.665,216.518 389.498,219.518 389,222.5C 387.333,223.833 385.667,223.833 384,222.5C 383.387,216.274 382.887,210.274 382.5,204.5 Z"/></g>
<g><path style="opacity:0.612" fill="#ded08d" d="M 616.5,199.5 C 618.303,200.046 619.97,200.88 621.5,202C 621.642,206.078 621.475,210.245 621,214.5C 624.882,210.286 628.382,205.786 631.5,201C 633.305,199.559 635.305,199.392 637.5,200.5C 637.666,207.841 637.5,215.174 637,222.5C 632.293,223.454 630.793,221.62 632.5,217C 632.369,214.747 631.869,212.581 631,210.5C 628.333,213.833 625.667,217.167 623,220.5C 621.214,223.362 618.881,224.028 616,222.5C 615.202,214.754 615.369,207.087 616.5,199.5 Z"/></g>
<g><path style="opacity:0.012" fill="#8b8a76" d="M 358.5,217.5 C 360.085,218.002 360.585,219.002 360,220.5C 358.961,219.756 358.461,218.756 358.5,217.5 Z"/></g>
<g><path style="opacity:0.996" fill="#c8b177" d="M 509.5,199.5 C 519.925,201.118 523.759,207.118 521,217.5C 513.657,226.425 505.99,226.759 498,218.5C 494.252,207.304 498.085,200.97 509.5,199.5 Z M 507.5,204.5 C 512.757,204.255 515.757,206.755 516.5,212C 513.76,219.136 509.26,220.636 503,216.5C 500.346,210.825 501.846,206.825 507.5,204.5 Z"/></g>
<g><path style="opacity:0.008" fill="#8f8d73" d="M 337.5,218.5 C 338.525,218.897 338.692,219.563 338,220.5C 337.536,219.906 337.369,219.239 337.5,218.5 Z"/></g>
<g><path style="opacity:1" fill="#ebdda1" d="M 69.5,209.5 C 75.5388,212.519 81.5388,215.519 87.5,218.5C 84.606,218.556 81.9393,219.39 79.5,221C 80.5,221.333 81.5,221.667 82.5,222C 80.6079,222.973 78.6079,223.64 76.5,224C 77.4506,224.718 77.6172,225.551 77,226.5C 74.4171,228.698 71.5838,230.531 68.5,232C 67.3595,232.741 67.3595,233.575 68.5,234.5C 66.5767,235.308 64.5767,235.808 62.5,236C 63.5,236.333 64.5,236.667 65.5,237C 63.1902,237.497 60.8568,237.663 58.5,237.5C 57.7659,236.292 57.4326,234.959 57.5,233.5C 56.325,233.719 55.325,233.386 54.5,232.5C 57.4951,230.537 60.4951,228.537 63.5,226.5C 64.6405,225.575 64.6405,224.741 63.5,224C 66.4536,222.354 69.1203,220.354 71.5,218C 70.1667,217.333 70.1667,216.667 71.5,216C 69.0684,214.913 69.4017,214.413 72.5,214.5C 72.2785,212.336 71.2785,210.67 69.5,209.5 Z"/></g>
<g><path style="opacity:0.592" fill="#ac8b5b" d="M 382.5,200.5 C 382.5,201.833 382.5,203.167 382.5,204.5C 381.005,204.989 379.671,205.655 378.5,206.5C 377.521,207.765 376.521,209.099 375.5,210.5C 378.641,214.453 380.975,218.786 382.5,223.5C 380.801,223.66 379.134,223.494 377.5,223C 375.273,220.436 373.439,217.603 372,214.5C 370.989,213.663 369.822,213.33 368.5,213.5C 368.817,216.572 368.484,219.572 367.5,222.5C 365.958,223.747 364.458,223.747 363,222.5C 362.502,219.518 362.335,216.518 362.5,213.5C 365.565,218.931 366.898,218.598 366.5,212.5C 367.5,212.5 368.5,212.5 369.5,212.5C 369.5,211.5 369.5,210.5 369.5,209.5C 366.908,209.454 364.741,208.454 363,206.5C 362.235,206.57 361.735,206.903 361.5,207.5C 361.167,207.5 360.833,207.5 360.5,207.5C 359.833,207.5 359.5,207.167 359.5,206.5C 359.5,206.167 359.5,205.833 359.5,205.5C 360.209,204.596 361.209,204.263 362.5,204.5C 362.884,199.557 365.051,198.557 369,201.5C 368.383,203.095 368.716,204.428 370,205.5C 371,205.167 372,204.833 373,204.5C 373.085,202.915 373.251,201.582 373.5,200.5C 376.327,199.669 379.327,199.669 382.5,200.5 Z M 368.5,206.5 C 371.797,206.329 372.131,206.995 369.5,208.5C 368.702,208.043 368.369,207.376 368.5,206.5 Z"/></g>
<g><path style="opacity:0.733" fill="#d6c48d" d="M 573.5,199.5 C 579.319,199.627 584.819,199.96 590,200.5C 590.813,208.08 590.647,215.58 589.5,223C 587.339,223.722 585.672,223.055 584.5,221C 585.341,215.775 585.675,210.775 585.5,206C 583.19,205.503 580.857,205.337 578.5,205.5C 577.965,209.819 577.465,214.152 577,218.5C 574.071,223.618 570.238,224.618 565.5,221.5C 566.738,219.363 568.571,218.029 571,217.5C 570.52,214.187 571.02,211.187 572.5,208.5C 571.311,207.571 569.978,207.238 568.5,207.5C 568.5,206.167 568.5,204.833 568.5,203.5C 570.981,203.226 572.647,201.893 573.5,199.5 Z"/></g>
<g><path style="opacity:1" fill="#e4d499" d="M 87.5,218.5 C 87.8333,218.5 88.1667,218.5 88.5,218.5C 88.0825,219.222 87.4158,219.722 86.5,220C 89.961,220.823 92.961,222.323 95.5,224.5C 95.5858,225.496 95.2524,226.329 94.5,227C 91.8944,228.27 89.561,229.937 87.5,232C 89.8776,232.974 89.5443,233.641 86.5,234C 86.8333,234.333 87.1667,234.667 87.5,235C 82.2774,235.02 77.2774,236.02 72.5,238C 74.8333,238.333 77.1667,238.667 79.5,239C 77.6183,239.198 75.9516,239.698 74.5,240.5C 68.1667,240.5 61.8333,240.5 55.5,240.5C 54.7703,238.955 53.437,238.122 51.5,238C 53.8098,237.503 56.1432,237.337 58.5,237.5C 60.8568,237.663 63.1902,237.497 65.5,237C 64.5,236.667 63.5,236.333 62.5,236C 64.5767,235.808 66.5767,235.308 68.5,234.5C 67.3595,233.575 67.3595,232.741 68.5,232C 71.5838,230.531 74.4171,228.698 77,226.5C 77.6172,225.551 77.4506,224.718 76.5,224C 78.6079,223.64 80.6079,222.973 82.5,222C 81.5,221.667 80.5,221.333 79.5,221C 81.9393,219.39 84.606,218.556 87.5,218.5 Z"/></g>
<g><path style="opacity:1" fill="#c9b17d" d="M 146.5,218.5 C 149.797,218.329 150.131,218.995 147.5,220.5C 148.641,221.425 148.641,222.259 147.5,223C 150.248,231.025 149.582,231.358 145.5,224C 143.609,223.691 142.275,224.525 141.5,226.5C 142.95,227.85 143.617,229.516 143.5,231.5C 140.854,231.108 138.354,231.108 136,231.5C 135.244,233.809 135.744,235.809 137.5,237.5C 130.197,238.497 122.863,238.831 115.5,238.5C 115.5,236.833 115.5,235.167 115.5,233.5C 120.641,232.174 125.641,230.341 130.5,228C 131.138,226.293 131.138,224.46 130.5,222.5C 132.144,222.714 133.644,222.38 135,221.5C 135.333,222.167 135.667,222.833 136,223.5C 138.43,221.392 141.096,220.725 144,221.5C 144.617,220.551 144.451,219.718 143.5,219C 144.448,218.517 145.448,218.351 146.5,218.5 Z"/></g>
<g><path style="opacity:1" fill="#decd8f" d="M 87.5,240.5 C 83.1667,240.5 78.8333,240.5 74.5,240.5C 75.9516,239.698 77.6183,239.198 79.5,239C 77.1667,238.667 74.8333,238.333 72.5,238C 77.2774,236.02 82.2774,235.02 87.5,235C 87.1667,234.667 86.8333,234.333 86.5,234C 89.5443,233.641 89.8776,232.974 87.5,232C 89.561,229.937 91.8944,228.27 94.5,227C 95.2524,226.329 95.5858,225.496 95.5,224.5C 95.7911,223.351 96.6244,222.684 98,222.5C 102.43,223.704 106.93,224.538 111.5,225C 109.527,225.495 107.527,225.662 105.5,225.5C 105.52,227.143 104.853,228.476 103.5,229.5C 103.709,230.086 104.043,230.586 104.5,231C 102.833,231.333 101.167,231.667 99.5,232C 100.167,232.333 100.833,232.667 101.5,233C 100.167,233.333 98.8333,233.667 97.5,234C 98.6405,234.741 98.6405,235.575 97.5,236.5C 98.0253,237.192 98.6919,237.692 99.5,238C 95.3007,238.528 91.3007,239.361 87.5,240.5 Z"/></g>
<g><path style="opacity:1" fill="#d6c08c" d="M 150.5,214.5 C 149.167,215.833 147.833,217.167 146.5,218.5C 145.448,218.351 144.448,218.517 143.5,219C 144.451,219.718 144.617,220.551 144,221.5C 141.096,220.725 138.43,221.392 136,223.5C 135.667,222.833 135.333,222.167 135,221.5C 133.644,222.38 132.144,222.714 130.5,222.5C 131.138,224.46 131.138,226.293 130.5,228C 125.641,230.341 120.641,232.174 115.5,233.5C 115.5,235.167 115.5,236.833 115.5,238.5C 109.966,238.668 104.633,239.335 99.5,240.5C 95.5,240.5 91.5,240.5 87.5,240.5C 91.3007,239.361 95.3007,238.528 99.5,238C 98.6919,237.692 98.0253,237.192 97.5,236.5C 98.6405,235.575 98.6405,234.741 97.5,234C 98.8333,233.667 100.167,233.333 101.5,233C 100.833,232.667 100.167,232.333 99.5,232C 101.167,231.667 102.833,231.333 104.5,231C 104.043,230.586 103.709,230.086 103.5,229.5C 104.853,228.476 105.52,227.143 105.5,225.5C 107.527,225.662 109.527,225.495 111.5,225C 106.93,224.538 102.43,223.704 98,222.5C 96.6244,222.684 95.7911,223.351 95.5,224.5C 92.961,222.323 89.961,220.823 86.5,220C 87.4158,219.722 88.0825,219.222 88.5,218.5C 109.686,224.718 130.352,223.384 150.5,214.5 Z"/></g>
<g><path style="opacity:1" fill="#b19160" d="M 209.5,215.5 C 201.756,232.551 188.422,240.551 169.5,239.5C 161.039,240.033 156.039,239.7 154.5,238.5C 157.833,238.5 161.167,238.5 164.5,238.5C 169.544,238.827 174.544,238.494 179.5,237.5C 182.076,236.117 181.742,235.283 178.5,235C 179.833,234.333 179.833,233.667 178.5,233C 179.678,232.033 181.011,231.533 182.5,231.5C 183.251,230.624 183.751,229.624 184,228.5C 184.333,228.833 184.667,229.167 185,229.5C 185.853,227.11 187.353,224.777 189.5,222.5C 194.015,220.411 198.349,218.077 202.5,215.5C 203.97,213.028 205.97,211.195 208.5,210C 207.151,208.365 207.318,206.865 209,205.5C 209.498,208.817 209.665,212.15 209.5,215.5 Z"/></g>
</svg>
